<svg xmlns="http://www.w3.org/2000/svg" xmlns:xlink="http://www.w3.org/1999/xlink" version="1.1" width="1080" height="1920" viewBox="0 0 1080 1920">
<defs>
<clipPath id="clip_0">
<path transform="matrix(1,0,0,-1,0,1920)" d="M0 1920H1080V0H0Z"/>
</clipPath>
<clipPath id="clip_1">
<path transform="matrix(1,0,0,-1,0,1920)" d="M437.993 1275.148C430.56 1273.896 423.313 1271.731 416.453 1268.711 415.518 1268.299 414.587 1267.858 413.653 1267.401L413.951 1265.981C414.562 1265.955 415.103 1265.902 415.563 1265.82 416.039 1265.741 416.369 1265.662 416.546 1265.607L416.704 1265.56 438.254 1268.63 438.023 1269.452C437.99 1269.571 437.953 1269.69 437.941 1269.85 437.859 1270.82 438.133 1272.639 438.796 1274.1L439.378 1275.38Z"/>
</clipPath>
<clipPath id="clip_2">
<path transform="matrix(1,0,0,-1,0,1920)" d="M0 1920H1080V0H0Z"/>
</clipPath>
<clipPath id="clip_3">
<path transform="matrix(1,0,0,-1,0,1920)" d="M417.044 1266.686 436.691 1270.164 437.126 1272.884C428.323 1271.417 417.044 1266.686 417.044 1266.686"/>
</clipPath>
<clipPath id="clip_4">
<path transform="matrix(1,0,0,-1,0,1920)" d="M0 1920H1080V0H0Z"/>
</clipPath>
<clipPath id="clip_5">
<path transform="matrix(1,0,0,-1,0,1920)" d="M416.671 1265.815 416.744 1265.306 438.703 1268.433 438.63 1268.942Z"/>
</clipPath>
<clipPath id="clip_6">
<path transform="matrix(1,0,0,-1,0,1920)" d="M416.349 1268.948C413.835 1267.841 411.331 1266.588 408.693 1265.118L408.942 1264.669C411.566 1266.132 414.057 1267.377 416.556 1268.478 423.904 1271.705 431.678 1273.955 439.62 1275.162L439.82 1275.25 439.89 1275.456 439.62 1275.433 439.582 1275.673C431.556 1274.456 423.739 1272.193 416.349 1268.948"/>
</clipPath>
<clipPath id="clip_7">
<path transform="matrix(1,0,0,-1,0,1920)" d="M0 1920H1080V0H0Z"/>
</clipPath>
<clipPath id="clip_8">
<path transform="matrix(1,0,0,-1,0,1920)" d="M442.543 1276.03C440.842 1276.021 440.329 1275.877 440.085 1275.758 439.187 1275.34 438.584 1273.641 438.365 1272.923 437.873 1271.263 437.845 1269.909 438.025 1269.355L438.132 1269.027 438.448 1268.895C439.218 1268.574 438.995 1266.038 438.684 1262.521L438.66 1262.209C438.425 1259.438 438.132 1255.989 438.165 1252.209 438.257 1242.933 444.531 1241.054 450.944 1239.925L452.155 1239.706C456.073 1238.995 461.438 1238.021 465.809 1238.043 469.427 1238.06 471.725 1238.766 472.837 1240.205 475.195 1243.285 477.413 1249.925 478.112 1255.984L478.113 1255.99 478.125 1255.989C481.033 1255.553 483.078 1254.91 484.277 1254.449L484.286 1254.445 484.283 1254.433C481.67 1246.84 482.047 1241.657 482.504 1239.241 483.303 1235.059 491.31 1232.194 499.436 1229.618L500.62 1229.234C502.821 1228.531 505.16 1227.883 507.35 1227.892 511.168 1227.913 513.998 1229.887 516.255 1234.106 517.999 1237.37 519.254 1240.224 520.173 1242.311 521.342 1245.001 522.265 1247.125 523.073 1247.128L523.413 1247.1 523.659 1247.337C524.563 1248.211 525.893 1252.596 524.995 1253.981 524.056 1255.441 513.247 1260.841 502.932 1263.653L500.736 1264.254C497.362 1265.198 495.133 1265.821 493.37 1265.812 490.5 1265.799 489.03 1264.106 487.002 1260.553L486.905 1260.384 486.904 1260.327 486.884 1260.336C483.607 1261.993 479.787 1262.441 478.307 1262.555L478.292 1262.557C477.711 1269.843 475.934 1270.285 467.401 1272.407L465.172 1272.964C456.27 1275.208 446.739 1276.03 442.685 1276.03 442.637 1276.03 442.589 1276.03 442.543 1276.03M464.206 1241.307C463.649 1241.333 463.081 1241.375 462.489 1241.43 459.238 1241.717 455.622 1242.362 452.983 1242.833L451.52 1243.1C450.709 1243.254 450.412 1243.336 449.961 1243.463L449.339 1243.647C447.214 1244.196 444.861 1245.03 443.56 1247.064 442.176 1249.212 442.138 1252.879 442.19 1254.357 442.292 1257.67 442.375 1259.524 442.741 1263.376L442.878 1264.96C443.054 1267.054 443.236 1269.22 443.815 1271.021 444.17 1272.043 444.937 1272.539 446.211 1272.581L447.124 1272.601C450.813 1272.619 453.837 1272.136 458.247 1271.21 459.176 1271.015 460.104 1270.82 461.041 1270.608 463.237 1270.139 465.345 1269.632 467.859 1268.965L468.324 1268.84C468.506 1268.795 468.675 1268.752 468.788 1268.73L469.057 1268.653C474.621 1267.189 474.736 1267.068 475.115 1262.146 475.585 1255.959 473.653 1248.403 471.499 1244.131 470.729 1242.58 469.182 1241.516 467.471 1241.35 466.937 1241.304 466.345 1241.273 465.723 1241.27 465.676 1241.27 465.628 1241.27 465.581 1241.27 465.144 1241.27 464.683 1241.281 464.206 1241.307M504.35 1231.392C503.454 1231.605 502.487 1231.902 501.52 1232.198L500.251 1232.609C497.373 1233.533 493.433 1234.798 490.262 1236.307 489.172 1236.829 488.252 1237.336 487.537 1237.81 486.148 1238.744 485.311 1240.358 485.302 1242.123 485.303 1244.833 485.718 1251.858 489.547 1258.548 491.375 1261.762 492.026 1262.415 493.419 1262.421 494.385 1262.425 495.711 1262.099 497.777 1261.559L498.831 1261.278C500.912 1260.744 503.077 1260.14 505.266 1259.48 510.807 1257.791 515.294 1256.045 518.974 1254.146 519.816 1253.701 520.244 1253.029 520.248 1252.15 520.249 1251.982 520.237 1251.804 520.204 1251.612 519.868 1249.751 519.032 1247.765 518.224 1245.845L517.577 1244.321C516.104 1240.72 515.384 1239.169 513.97 1236.236 513.12 1234.428 512.114 1233.365 510.134 1232.177 508.956 1231.485 507.76 1231.145 506.479 1231.14 506.464 1231.14 506.45 1231.14 506.435 1231.14 505.753 1231.14 505.071 1231.223 504.35 1231.392"/>
</clipPath>
<clipPath id="clip_9">
<path transform="matrix(1,0,0,-1,0,1920)" d="M439.954 1275.981C438.52 1275.286 437.523 1271.656 437.683 1269.83 437.741 1269.167 437.952 1268.78 438.308 1268.679 438.958 1268.488 438.715 1265.732 438.434 1262.542 438.182 1259.688 437.869 1256.135 437.908 1252.21 438.001 1242.742 444.378 1240.825 450.901 1239.675L452.104 1239.457C459.256 1238.159 470.064 1236.195 473.032 1240.042 475.42 1243.147 477.588 1249.555 478.341 1255.702 480.931 1255.293 482.792 1254.726 483.962 1254.289 482.078 1248.713 481.47 1243.361 482.254 1239.192 483.147 1234.513 492.904 1231.417 499.361 1229.368L500.535 1228.995C502.78 1228.277 505.059 1227.667 507.256 1227.667 510.675 1227.667 513.896 1229.142 516.482 1233.977 518.194 1237.175 519.416 1239.961 520.398 1242.201 521.573 1244.883 522.508 1247.005 523.118 1246.86 523.43 1246.794 523.76 1246.991 524.084 1247.458 525.092 1248.907 526.045 1252.82 525.208 1254.119 524.127 1255.815 512.966 1261.179 502.994 1263.898 502.218 1264.11 501.491 1264.314 500.809 1264.505 492.611 1266.796 490.608 1267.357 486.782 1260.682 483.66 1262.199 480.13 1262.66 478.534 1262.796 477.909 1270.067 475.853 1270.576 467.456 1272.651 466.761 1272.824 466.018 1273.008 465.228 1273.207 457.313 1275.203 447.716 1276.282 442.87 1276.282 441.404 1276.282 440.372 1276.183 439.954 1275.981M452.196 1239.961 450.991 1240.18C444.417 1241.339 438.511 1243.132 438.422 1252.215 438.383 1256.115 438.694 1259.653 438.945 1262.497 439.307 1266.601 439.506 1268.861 438.451 1269.172 438.358 1269.198 438.236 1269.398 438.195 1269.875 438.053 1271.486 438.999 1274.948 440.178 1275.519 441.694 1276.253 454.46 1275.394 465.103 1272.709 465.894 1272.51 466.637 1272.325 467.334 1272.154 475.92 1270.03 477.467 1269.648 478.04 1262.537L478.057 1262.318 478.276 1262.302C479.75 1262.191 483.529 1261.753 486.771 1260.114L487.144 1259.926 487.158 1260.305C490.829 1266.76 492.349 1266.337 500.67 1264.01 501.354 1263.819 502.081 1263.615 502.859 1263.403 513.143 1260.599 523.864 1255.273 524.776 1253.844L524.777 1253.843C525.483 1252.747 524.572 1249.059 523.663 1247.751 523.432 1247.418 523.282 1247.353 523.23 1247.361 522.212 1247.602 521.444 1245.865 519.927 1242.407 518.949 1240.176 517.731 1237.399 516.03 1234.219 511.961 1226.618 506.452 1227.642 500.692 1229.484L499.516 1229.857C493.561 1231.747 483.594 1234.91 482.759 1239.287 482.307 1241.685 481.938 1246.831 484.528 1254.357L484.608 1254.59 484.378 1254.679C483.169 1255.15 481.108 1255.804 478.156 1256.249L477.894 1256.288 477.863 1256.025C477.161 1249.98 474.959 1243.391 472.626 1240.356 471.449 1238.83 468.787 1238.312 465.607 1238.312 461.282 1238.312 456 1239.271 452.196 1239.961M446.231 1272.835C444.825 1272.792 443.958 1272.226 443.581 1271.108 442.972 1269.238 442.789 1267.006 442.611 1264.847 442.57 1264.358 442.531 1263.871 442.486 1263.392 442.119 1259.485 442.034 1257.639 441.931 1254.361 441.878 1252.865 441.906 1249.144 443.338 1246.924 444.682 1244.828 447.093 1243.961 449.275 1243.39 449.546 1243.318 449.735 1243.262 449.906 1243.21 450.286 1243.098 450.587 1243.009 451.468 1242.846L452.739 1242.613C456.085 1242.012 459.346 1241.449 462.468 1241.178 463.049 1241.121 463.617 1241.078 464.2 1241.05 464.69 1241.026 465.16 1241.014 465.608 1241.014 466.287 1241.014 466.919 1241.042 467.495 1241.098 469.286 1241.261 470.912 1242.382 471.74 1244.023 473.908 1248.335 475.85 1255.95 475.369 1262.158 474.974 1267.366 474.635 1267.455 468.969 1268.942L458.176 1271.484 458.17 1271.486C454.026 1272.358 450.969 1272.849 447.317 1272.849 446.961 1272.849 446.599 1272.844 446.231 1272.835M464.225 1241.563C463.649 1241.591 463.091 1241.632 462.515 1241.689 459.413 1241.959 456.163 1242.519 452.833 1243.118L451.56 1243.351C450.706 1243.509 450.432 1243.59 450.052 1243.704 449.878 1243.755 449.683 1243.813 449.405 1243.885 447.319 1244.433 445.018 1245.254 443.77 1247.202 442.379 1249.358 442.403 1253.212 442.444 1254.344 442.547 1257.612 442.631 1259.452 442.997 1263.344 443.042 1263.825 443.082 1264.314 443.123 1264.805 443.298 1266.934 443.479 1269.136 444.068 1270.946 444.371 1271.849 445.064 1272.285 446.246 1272.323 446.608 1272.332 446.962 1272.336 447.312 1272.336 450.914 1272.336 453.952 1271.849 458.061 1270.984L468.753 1268.468 468.839 1268.446C474.491 1266.962 474.491 1266.962 474.858 1262.119 475.331 1256.003 473.417 1248.502 471.28 1244.254 470.534 1242.769 469.065 1241.756 467.447 1241.609 466.885 1241.555 466.269 1241.527 465.606 1241.527 465.166 1241.527 464.705 1241.539 464.225 1241.563M489.318 1258.675C485.449 1251.911 485.041 1244.847 485.045 1242.123 485.055 1240.271 485.932 1238.581 487.394 1237.601 488.147 1237.105 489.076 1236.59 490.154 1236.072 493.371 1234.536 497.381 1233.259 500.307 1232.327L501.433 1231.958C502.721 1231.553 503.55 1231.318 504.296 1231.144 505.045 1230.97 505.755 1230.881 506.436 1230.881 507.798 1230.881 509.044 1231.235 510.257 1231.952 512.256 1233.146 513.327 1234.28 514.207 1236.136 515.621 1239.073 516.344 1240.627 517.821 1244.225 517.999 1244.653 518.182 1245.086 518.368 1245.523 519.218 1247.527 520.097 1249.6 520.462 1251.569V1251.57C520.686 1252.8 520.204 1253.793 519.104 1254.363 515.425 1256.269 510.923 1258.022 505.338 1259.723 503.265 1260.354 501.095 1260.962 498.889 1261.532L497.846 1261.802C495.823 1262.329 494.495 1262.675 493.495 1262.675 491.756 1262.674 491.006 1261.63 489.318 1258.675M504.412 1231.645C503.68 1231.815 502.862 1232.047 501.591 1232.446L500.466 1232.815C497.551 1233.743 493.561 1235.014 490.376 1236.535 489.319 1237.043 488.411 1237.546 487.678 1238.028 486.36 1238.912 485.567 1240.444 485.558 1242.125 485.555 1244.806 485.956 1251.762 489.765 1258.42 491.328 1261.158 491.899 1262.159 493.511 1262.159 494.439 1262.159 495.712 1261.827 497.717 1261.305L498.761 1261.034C500.959 1260.466 503.122 1259.86 505.189 1259.231 510.743 1257.54 515.218 1255.799 518.867 1253.907 519.776 1253.436 520.142 1252.68 519.956 1251.661 519.602 1249.748 518.735 1247.701 517.895 1245.723 517.709 1245.286 517.524 1244.851 517.346 1244.42 515.874 1240.835 515.154 1239.286 513.743 1236.357 512.911 1234.602 511.895 1233.527 509.994 1232.393 508.866 1231.725 507.702 1231.396 506.427 1231.396 505.787 1231.396 505.118 1231.479 504.412 1231.645"/>
</clipPath>
<clipPath id="clip_10">
<path transform="matrix(1,0,0,-1,0,1920)" d="M0 1920H1080V0H0Z"/>
</clipPath>
<clipPath id="clip_11">
<path transform="matrix(1,0,0,-1,0,1920)" d="M0 1920H1080V0H0Z"/>
</clipPath>
<clipPath id="clip_12">
<path transform="matrix(1,0,0,-1,0,1920)" d="M471.871 1795.949C471.397 1795.527 470.868 1795.053 470.341 1794.631 469.55 1793.945 468.706 1793.259 467.914 1792.521 464.697 1789.672 461.584 1786.665 458.63 1783.5 457.892 1782.656 457.153 1781.865 456.467 1781.021L455.465 1779.755 454.463 1778.436C454.093 1778.014 453.777 1777.592 453.514 1777.117L453.091 1776.537C452.88 1780.388 453.355 1786.349 457.206 1791.94 458.156 1793.364 459.263 1794.736 460.582 1795.949H390V1702.948H483.001V1790.938C480.469 1784.714 476.935 1780.018 472.398 1776.959 465.277 1772.105 457.522 1772.686 454.252 1773.161L454.515 1773.688 454.885 1774.374C454.991 1774.585 455.096 1774.796 455.254 1775.007L455.676 1775.693C455.94 1776.115 456.204 1776.537 456.521 1776.959L457.417 1778.278 458.366 1779.491C458.999 1780.335 459.685 1781.126 460.371 1781.97 463.114 1785.188 466.069 1788.248 469.128 1791.202 469.919 1791.94 470.711 1792.626 471.502 1793.364 472.293 1794.103 473.032 1794.842 473.875 1795.527L474.35 1795.949ZM418.697 1776.01H428.509V1731.909H454.357V1722.888H418.697Z"/>
</clipPath>
<clipPath id="clip_13">
<path transform="matrix(1,0,0,-1,0,1920)" d="M0 1920H1080V0H0Z"/>
</clipPath>
<clipPath id="clip_14">
<path transform="matrix(1,0,0,-1,0,1920)" d="M493.499 1795.949V1702.948H550.26C550.894 1704.847 551.79 1706.799 553.108 1708.698 558.226 1716.188 567.616 1720.989 581.173 1722.993L578.957 1721.358C577.217 1720.093 575.528 1718.773 573.788 1717.508 572.944 1716.874 572.099 1716.188 571.255 1715.503L568.777 1713.498C567.932 1712.813 567.141 1712.074 566.297 1711.389 565.453 1710.703 564.662 1710.017 563.818 1709.278 561.549 1707.221 559.281 1705.111 557.118 1702.948H560.072C561.707 1704.636 563.342 1706.324 565.084 1707.96 565.822 1708.698 566.613 1709.383 567.405 1710.122 568.196 1710.86 568.987 1711.599 569.778 1712.285L572.205 1714.395C572.997 1715.08 573.788 1715.819 574.632 1716.452 576.267 1717.824 577.903 1719.195 579.59 1720.515L582.808 1722.993C581.701 1714.87 579.643 1708.17 576.636 1702.948H586.501V1795.949ZM519.611 1776.01H546.673C548.466 1776.01 550.049 1775.588 551.473 1774.796 552.898 1774.004 554.111 1772.95 555.114 1771.683 556.115 1770.418 556.854 1768.993 557.435 1767.358 557.962 1765.723 558.226 1764.087 558.226 1762.452 558.226 1759.867 557.645 1757.441 556.379 1755.172 555.166 1752.904 553.32 1751.215 550.946 1750.109 553.847 1749.211 556.168 1747.629 557.857 1745.308 559.544 1742.987 560.389 1740.085 560.389 1736.551 560.389 1734.335 559.966 1732.331 559.122 1730.642 558.226 1728.955 557.065 1727.53 555.588 1726.37 554.058 1725.262 552.317 1724.365 550.365 1723.785 548.414 1723.152 546.304 1722.888 544.036 1722.888H519.611ZM529.423 1767.147V1753.8H542.559C544.194 1753.8 545.618 1754.381 546.779 1755.594 547.939 1756.755 548.519 1758.39 548.519 1760.5 548.519 1762.557 547.992 1764.193 546.937 1765.354 545.881 1766.567 544.563 1767.147 542.981 1767.147ZM529.423 1745.624V1731.645H544.036C544.932 1731.645 545.776 1731.803 546.567 1732.172 547.359 1732.489 548.045 1733.017 548.625 1733.597 549.205 1734.23 549.627 1734.969 549.944 1735.812 550.313 1736.656 550.471 1737.553 550.471 1738.503 550.471 1739.453 550.313 1740.349 549.996 1741.246 549.68 1742.143 549.258 1742.881 548.783 1743.514 548.256 1744.2 547.623 1744.674 546.884 1745.044 546.198 1745.413 545.407 1745.624 544.563 1745.624Z"/>
</clipPath>
<clipPath id="clip_15">
<path transform="matrix(1,0,0,-1,0,1920)" d="M0 1920H1080V0H0Z"/>
</clipPath>
<clipPath id="clip_16">
<path transform="matrix(1,0,0,-1,0,1920)" d="M627.331 1795.949C625.168 1789.25 621.792 1784.344 617.308 1781.338 611.241 1777.223 604.595 1777.645 601.852 1778.119L602.062 1778.541 602.379 1779.122C602.484 1779.28 602.59 1779.491 602.696 1779.649L603.012 1780.23C603.276 1780.599 603.487 1780.968 603.751 1781.338L604.542 1782.445 605.333 1783.5C605.861 1784.238 606.494 1784.872 607.021 1785.61 609.395 1788.353 611.874 1790.938 614.512 1793.47 615.146 1794.103 615.831 1794.684 616.516 1795.316 616.728 1795.527 616.991 1795.739 617.202 1795.949H615.039C614.512 1795.475 613.984 1795.053 613.457 1794.578 610.714 1792.151 608.076 1789.619 605.597 1786.876 604.964 1786.19 604.331 1785.505 603.751 1784.766L602.854 1783.711 602.01 1782.603C601.693 1782.234 601.43 1781.865 601.166 1781.443L600.849 1780.968C600.691 1784.238 601.06 1789.356 604.331 1794.103 604.753 1794.736 605.227 1795.37 605.755 1795.949H596.946V1702.948H689.947V1795.949ZM635.402 1724.892C632.395 1726.475 629.81 1728.585 627.647 1731.17 625.485 1733.702 623.796 1736.656 622.583 1739.875 621.37 1743.145 620.789 1746.521 620.789 1749.897 620.789 1753.115 621.317 1756.333 622.478 1759.498 623.586 1762.663 625.221 1765.512 627.331 1767.991 629.493 1770.47 632.078 1772.527 635.191 1774.057 638.303 1775.588 641.785 1776.379 645.741 1776.379 650.383 1776.379 654.445 1775.324 657.822 1773.161 661.25 1770.997 663.782 1768.202 665.418 1764.773L657.874 1759.34C657.188 1760.817 656.397 1762.083 655.448 1763.085 654.498 1764.14 653.443 1764.932 652.388 1765.512 651.28 1766.145 650.12 1766.567 648.959 1766.83 647.745 1767.094 646.585 1767.253 645.477 1767.253 642.998 1767.253 640.835 1766.725 638.989 1765.669 637.195 1764.615 635.665 1763.243 634.452 1761.608 633.239 1759.92 632.29 1758.02 631.709 1755.911 631.076 1753.8 630.76 1751.691 630.76 1749.58 630.76 1747.259 631.129 1744.991 631.814 1742.828 632.553 1740.666 633.556 1738.714 634.874 1737.078 636.193 1735.443 637.723 1734.125 639.569 1733.122 641.416 1732.119 643.42 1731.645 645.583 1731.645 646.744 1731.645 647.904 1731.803 649.17 1732.067 650.383 1732.384 651.596 1732.858 652.704 1733.491 653.812 1734.177 654.867 1734.969 655.816 1736.023 656.766 1737.025 657.505 1738.292 658.085 1739.716L666.157 1734.862C665.312 1732.858 664.151 1731.118 662.674 1729.588 661.198 1728.058 659.509 1726.792 657.61 1725.736 655.764 1724.682 653.707 1723.891 651.596 1723.31 649.434 1722.783 647.376 1722.519 645.319 1722.519 641.679 1722.519 638.409 1723.31 635.402 1724.892"/>
</clipPath>
<clipPath id="clip_17">
<path transform="matrix(1,0,0,-1,0,1920)" d="M0 1920H1080V0H0Z"/>
</clipPath>
<clipPath id="clip_18">
<path transform="matrix(1,0,0,-1,0,1920)" d="M0 1920H1080V0H0Z"/>
</clipPath>
<clipPath id="clip_19">
<path transform="matrix(1,0,0,-1,0,1920)" d="M0 1920H1080V0H0Z"/>
</clipPath>
</defs>

    <text
        x="50%" y="78%" text-anchor="middle" fill="#383838" font-family="Arial" font-size="16"

        style="font-variant:normal;font-weight:normal;font-stretch:normal;font-size:28px;font-family:
       'Sitka Small';-inkscape-font-specification:SitkaText;writing-mode:lr-tb;fill:#c28f45;
       fill-opacity:1;fill-rule:nonzero;stroke:none"
        id="text14"><tspan

        fill="#383838"
        id="tspan12">Dear friend, ever since you came into my life, you have ﬁlled</tspan></text>
    <text
        x="50%" y="80%" text-anchor="middle" fill="#383838" font-family="Arial" font-size="16"
        style="font-variant:normal;font-weight:normal;font-stretch:normal;font-size:28px;font-family:'Sitka Small';-inkscape-font-specification:SitkaText;writing-mode:lr-tb;fill:#6d4d26;fill-opacity:1;fill-rule:nonzero;stroke:none"
        id="text18"><tspan
        fill="#383838"
        id="tspan16">my life with utter joy and happiness! Happy Friendship Day to you!</tspan></text>



    <text
        x="50%" y="22%" text-anchor="middle" fill="#383838" font-family="Arial" font-size="14"
        style="font-variant:normal;font-weight:500;font-stretch:normal;font-size:30px;font-family:Poppins;-inkscape-font-specification:Poppins-Medium;writing-mode:lr-tb;fill:#6d4d26;fill-opacity:1;fill-rule:nonzero;stroke:none"
        id="text1296">

        <tspan
            fill="#383838"
            id="tspan1292">06, August 2024</tspan>

    </text>

    <g clip-path="url(#clip_18)">
<path transform="matrix(1,0,0,-1,0,1920)" d="M1080 0H0V173H1080Z" fill="#383838"/>
<path transform="matrix(1,0,0,-1,0,1920)" d="M1055 25H25V172.75H1055Z" fill="#6d4d26"/>
</g>
<g clip-path="url(#clip_19)">
<path transform="matrix(1,0,0,-1,0,1920)" d="M1080 1875H0V1920H1080Z" fill="#383838"/>
<path transform="matrix(1,0,0,-1,0,1920)" d="M1080 1897.5H0V1920H1080Z" fill="#6d4d26"/>
</g>
</svg>
