<svg xmlns="http://www.w3.org/2000/svg" xmlns:xlink="http://www.w3.org/1999/xlink" version="1.1" width="1080" height="1920" viewBox="0 0 1080 1920">
<defs>
<clipPath id="clip_0">
</clipPath>
<clipPath id="clip_1">
</clipPath>
<clipPath id="clip_2">
</clipPath>
<clipPath id="clip_3">
</clipPath>
<clipPath id="clip_4">
</clipPath>
<clipPath id="clip_5">
</clipPath>
<clipPath id="clip_6">
</clipPath>
<clipPath id="clip_7">
</clipPath>
<clipPath id="clip_8">
</clipPath>
<clipPath id="clip_9">
</clipPath>
<clipPath id="clip_10">
</clipPath>
<clipPath id="clip_11">
</clipPath>
</defs>
    <text
        x="50%" y="80%" text-anchor="middle" fill="#ffffff" font-family="Arial" font-size="16"

        style="font-variant:normal;font-weight:normal;font-stretch:normal;font-size:28px;font-family:
       'Sitka Small';-inkscape-font-specification:SitkaText;writing-mode:lr-tb;fill:#c28f45;
       fill-opacity:1;fill-rule:nonzero;stroke:none"
        id="text14"><tspan

        fill="#383838"
        id="tspan12">Dear friend, ever since you came into my life, you have ﬁlled</tspan></text>
    <text
        x="50%" y="83%" text-anchor="middle" fill="#ffffff" font-family="Arial" font-size="16"
        style="font-variant:normal;font-weight:normal;font-stretch:normal;font-size:28px;font-family:'Sitka Small';-inkscape-font-specification:SitkaText;writing-mode:lr-tb;fill:#6d4d26;fill-opacity:1;fill-rule:nonzero;stroke:none"
        id="text18"><tspan
        fill="#383838"
        id="tspan16">my life with utter joy and happiness! Happy Friendship Day to you!</tspan></text>

    <text
        x="50%" y="90%" text-anchor="middle" fill="#ffffff" font-family="Arial" font-size="14"
        style="font-variant:normal;font-weight:500;font-stretch:normal;font-size:30px;font-family:Poppins;-inkscape-font-specification:Poppins-Medium;writing-mode:lr-tb;fill:#6d4d26;fill-opacity:1;fill-rule:nonzero;stroke:none"
        id="text1296">

        <tspan
            fill="#383838"
            id="tspan1292">www.luxurybeautyclub.com</tspan>

    </text>

    <text
        x="50%" y="20%" text-anchor="middle" fill="#ffffff" font-family="Arial" font-size="14"
        style="font-variant:normal;font-weight:500;font-stretch:normal;font-size:30px;font-family:Poppins;-inkscape-font-specification:Poppins-Medium;writing-mode:lr-tb;fill:#6d4d26;fill-opacity:1;fill-rule:nonzero;stroke:none"
        id="text1296">

        <tspan
            fill="#383838"
            id="tspan1292">06, August 2024</tspan>

    </text>
<!--<text fill="#383838" xml:space="preserve" transform="matrix(1 0 -0 1 0 1920)" font-size="28" font-family="SitkaText">-->
<!--    <tspan y="-418.7231" dx="16%">-->
<!--    Dear friend, ever since you came into my life, you have ﬁlled</tspan></text>-->
<!--<text fill="#383838" xml:space="preserve" transform="matrix(1 0 -0 1 0 1920)" font-size="28"-->
<!--    dx="12%"-->
<!--    font-family="SitkaText"><tspan y="-380.7271"-->
<!-- >my life with utter joy and happiness! Happy Friendship Day to you!</tspan></text>-->

<!-- <text-->
<!--        xml:space="preserve"-->
<!--        transform="matrix(1 0 -0 1 0 1920)"-->
<!--        font-size="30" font-family="Poppins"-->

<!--        id="text1296">-->

<!--   <tspan-->
<!--       y="-259.709"-->
<!--       fill="#383838"-->
<!--       dx="30%" dy="1.5em"-->
<!--       id="tspan1292">www.luxurybeautyclub.com</tspan>-->

<!--       </text>-->
<!--    <text-->
<!--        xml:space="preserve"-->
<!--        transform="matrix(1 0 -0 1 0 1920)"-->
<!--        font-size="30" font-family="Poppins"-->

<!--        id="text1296">-->

<!--   <tspan-->
<!--       y="-1559.709"-->
<!--       fill="#383838"-->
<!--       dx="40%" dy="1.5em"-->
<!--       id="tspan1292">06, August 2024</tspan>-->

<!--       </text>-->
<g clip-path="url(#clip_11)">
<path transform="matrix(1,0,0,-1,1040,1818.8113)" d="M0 0C0-33.794-27.395-61.189-61.188-61.189H-938.812C-972.605-61.189-1000-33.794-1000 0V1717.623C-1000 1751.416-972.605 1778.811-938.812 1778.811H-61.188C-27.395 1778.811 0 1751.416 0 1717.623ZM-1040-101.189H40V1818.811H-1040Z" fill="#6d4d26"/>
<path transform="matrix(1,0,0,-1,1030,1816.2914)" d="M0 0C0-29.662-24.046-53.709-53.708-53.709H-926.292C-955.954-53.709-980-29.662-980 0V1712.583C-980 1742.245-955.954 1766.291-926.292 1766.291H-53.708C-24.046 1766.291 0 1742.245 0 1712.583ZM-51.188 1776.291H-928.812C-962.605 1776.291-990
1748.896-990 1715.103V-2.52C-990-36.313-962.605-63.709-928.812-63.709H-51.188C-17.395-63.709 10-36.313 10-2.52V1715.103C10 1748.896-17.395 1776.291-51.188 1776.291" fill="#383838"/>
</g>
</svg>
