<svg width="44" height="43" viewBox="0 0 44 43" fill="none" xmlns="http://www.w3.org/2000/svg">
<g clip-path="url(#clip0_1_321)">
<path d="M37.17 1.63H6.82999C4.4386 1.63 2.49999 3.56861 2.49999 5.96V36.3C2.49999 38.6914 4.4386 40.63 6.82999 40.63H37.17C39.5614 40.63 41.5 38.6914 41.5 36.3V5.96C41.5 3.56861 39.5614 1.63 37.17 1.63Z" stroke="#808A80" stroke-width="3.25" stroke-linecap="round" stroke-linejoin="round"/>
<path d="M14.41 16.79C16.2049 16.79 17.66 15.335 17.66 13.54C17.66 11.7451 16.2049 10.29 14.41 10.29C12.6151 10.29 11.16 11.7451 11.16 13.54C11.16 15.335 12.6151 16.79 14.41 16.79Z" stroke="#808A80" stroke-width="3.25" stroke-linecap="round" stroke-linejoin="round"/>
<path d="M41.5 27.63L30.66 16.79L6.82999 40.63" stroke="#808A80" stroke-width="3.25" stroke-linecap="round" stroke-linejoin="round"/>
</g>
<defs>
<clipPath id="clip0_1_321">
<rect width="42.25" height="42.25" fill="white" transform="translate(0.869995)"/>
</clipPath>
</defs>
</svg>
