<svg width="501" height="501" viewBox="0 0 501 501" fill="none" xmlns="http://www.w3.org/2000/svg">
<g filter="url(#filter0_d_1_211)">
<path d="M243.77 469.7C368.586 469.7 469.77 368.516 469.77 243.7C469.77 118.884 368.586 17.7 243.77 17.7C118.954 17.7 17.77 118.884 17.77 243.7C17.77 368.516 118.954 469.7 243.77 469.7Z" fill="#C94C9A"/>
</g>
<path d="M81.16 349.4C83.41 359.33 94.99 357.72 110.55 350.58C129.14 342.06 155.53 312.26 150.05 288.48C149.55 286.31 148.79 284.2 147.73 282.15C135.06 257.65 84.32 325.84 81.83 337.02C80.65 342.32 80.48 346.39 81.16 349.4Z" fill="#EDEDED"/>
<path d="M81.1602 349.4C83.4102 359.33 94.9902 357.72 110.55 350.58C129.14 342.06 155.53 312.26 150.05 288.48C141.86 308.95 122.51 341.79 81.1702 349.4H81.1602Z" fill="#E2E2E2"/>
<path d="M123.04 291.82C118.64 296.61 112.12 305.21 113.65 306.84C115.22 308.51 125.24 302.95 132.05 294.82C136.7 289.27 140.71 281.5 139.18 280.18C137.45 278.68 128.77 285.58 123.03 291.82H123.04Z" fill="#D3D3D3"/>
<path d="M318.47 315.59C318.47 356.99 289.42 405.63 243.27 405.63C214.67 405.63 191.14 388.12 177.38 364.71C168.92 350.34 164.15 333.74 164.15 317.61C164.15 275.19 210.45 277.21 239.78 277.21C271.96 277.21 310.15 274.75 317.28 304.71C318.06 307.94 318.46 311.55 318.46 315.58L318.47 315.59Z" fill="#EDEDED"/>
<path d="M318.47 315.59C318.47 356.99 289.42 405.63 243.27 405.63C214.67 405.63 191.14 388.12 177.38 364.71C206.04 378.2 287.68 406.14 317.28 304.72C318.06 307.95 318.46 311.56 318.46 315.59H318.47Z" fill="#E2E2E2"/>
<path d="M180.14 301.17C174.15 310.95 178.39 324.86 188.68 330.32C199.56 336.09 214.36 330.92 218.41 319.44C222.25 308.54 214.85 296.32 204.24 292.9C195.73 290.15 185.13 293.05 180.15 301.17H180.14Z" fill="#D3D3D3"/>
<path d="M382.33 345.64C381.87 364.67 377.43 376.28 364.8 370.24C362.63 369.2 360.22 367.64 357.54 365.51C348.58 358.36 309.55 282.86 337.13 282.22C344.26 282.06 350.75 284.72 356.46 289.15C372.84 301.87 382.73 329.1 382.32 345.64H382.33Z" fill="#EDEDED"/>
<path d="M382.33 345.64C381.87 364.67 377.43 376.28 364.8 370.24C368.89 360.18 372.51 336.97 356.47 289.15C372.85 301.87 382.74 329.1 382.33 345.64Z" fill="#E2E2E2"/>
<path d="M345.15 318.33C350.25 330.16 357.85 350.74 355.66 351.75C353.69 352.66 343.49 337.78 338.01 320.58C334.96 311 333.05 299.7 334.63 299.18C336.6 298.52 343.56 314.65 345.14 318.33H345.15Z" fill="#D3D3D3"/>
<path d="M160.77 189.6C158.09 186.83 156.03 183.64 154.63 180.24C151.39 172.43 151.56 163.49 155.47 155.86C159.44 148.12 166.76 142.68 175.2 140.84C177.59 140.31 180.07 140.07 182.59 140.15C187.75 173.08 160.77 189.6 160.77 189.6Z" fill="#EDEDED"/>
<path d="M160.77 189.6C158.09 186.83 156.03 183.64 154.63 180.24C158.08 174.45 161.56 168.29 165 161.75C168.79 154.54 172.17 147.55 175.2 140.84C177.59 140.31 180.07 140.07 182.59 140.15C175.32 156.63 168.04 173.12 160.77 189.6Z" fill="#E2E2E2"/>
<path d="M322.35 225.57C318.66 266.53 224.38 278.41 180.83 252.84C168.73 245.74 160.55 235.73 159.31 222.67C153.62 162.58 194.3 108.37 239.92 109.19C256.46 109.48 275.76 116.16 291.59 130.47C311.88 148.79 326.49 179.62 322.34 225.58L322.35 225.57Z" fill="#EDEDED"/>
<path d="M158.62 160.88C158.29 160.69 150.43 156.22 144.38 145.97C138.85 136.59 133.86 120.39 141.51 96.46L145.74 97.81C140.04 115.66 140.83 131.04 148.09 143.52C153.51 152.82 160.72 156.97 160.79 157.01L158.62 160.88Z" fill="#E2E2E2"/>
<path d="M145.4 102.43C151.105 102.43 155.73 97.805 155.73 92.0999C155.73 86.3948 151.105 81.7699 145.4 81.7699C139.695 81.7699 135.07 86.3948 135.07 92.0999C135.07 97.805 139.695 102.43 145.4 102.43Z" fill="#232323"/>
<path d="M298.59 188.91C298.44 197.14 289.32 202.05 277.62 204.85C265.3 207.81 250.12 208.43 239.57 208.14C224.46 207.73 195.37 204.58 185.03 194.82C182.61 192.53 181.21 189.88 181.27 186.82C181.43 177.91 185.29 169.9 191.4 164.16C197.51 158.43 205.87 154.96 215.04 155.13L265.98 156.04C276.64 156.23 286.03 161.28 291.97 168.98C296.25 174.53 298.73 181.45 298.6 188.92L298.59 188.91Z" fill="#474747"/>
<path d="M298.59 188.91C298.44 197.14 289.32 202.05 277.62 204.85C265.3 207.81 250.12 208.43 239.57 208.14C224.46 207.73 195.37 204.58 185.03 194.82C214.98 194.45 265.94 190.45 291.97 168.97C296.25 174.52 298.73 181.44 298.6 188.91H298.59Z" fill="#232323"/>
<path d="M240.31 245.17C230.64 245 223.18 241.44 217.81 236.92C208.17 228.82 205.26 217.63 208.4 217.44C213.29 217.15 224.82 223.18 237.96 223.42C253.06 223.69 263.41 220.07 271.18 219.89C271.53 219.88 271.86 219.88 272.2 219.89C280.08 220.03 269.97 245.71 240.31 245.18V245.17Z" fill="#474747"/>
<path d="M322.35 225.57C318.66 266.53 224.38 278.41 180.83 252.84C207.63 257.78 287.46 269 302.54 230.71C315.51 197.78 300.99 153.28 291.59 130.46C311.88 148.78 326.49 179.61 322.34 225.57H322.35Z" fill="#E2E2E2"/>
<path d="M186.64 148.6C189.01 151.85 204.08 145.41 214.24 138.2C223.98 131.29 234 120.31 231.89 117.11C230.02 114.27 218.91 118.07 211.9 121.64C196.22 129.62 184.05 145.07 186.63 148.61L186.64 148.6Z" fill="#D3D3D3"/>
<path d="M163.73 212.04C163.89 223 170.4 233.52 173.12 232.86C175.98 232.17 175.05 219.06 173.87 211.84C173.53 209.77 171.45 197.1 168.5 197.1C166.18 197.1 163.63 204.94 163.73 212.04Z" fill="#D3D3D3"/>
<path d="M222.52 180.61C222.37 188.8 215.62 195.32 207.43 195.17C201.1 195.06 195.77 191 193.74 185.38C193.14 183.73 192.83 181.94 192.86 180.07C193.01 171.88 199.76 165.36 207.96 165.51C213.99 165.62 219.11 169.31 221.33 174.51C222.13 176.38 222.56 178.44 222.52 180.6V180.61Z" fill="#232323"/>
<path d="M207.95 165.52C213.98 165.63 219.1 169.32 221.32 174.52C222.12 176.39 222.55 178.45 222.51 180.61C222.36 188.8 215.61 195.32 207.42 195.17C201.09 195.06 195.76 191 193.73 185.38C193.13 183.73 192.82 181.94 192.85 180.07C193 171.88 199.75 165.36 207.94 165.51L207.95 165.52ZM208 162.98C198.42 162.81 190.49 170.46 190.32 180.03C190.28 182.16 190.63 184.25 191.35 186.24C193.78 192.97 200.22 197.57 207.38 197.7C216.95 197.87 224.88 190.22 225.05 180.65C225.09 178.17 224.62 175.77 223.65 173.51C220.97 167.24 214.83 163.1 208 162.98Z" fill="#EDEDED"/>
<path d="M221.31 174.49C215.54 187.77 201.81 187.13 193.76 185.43C193.16 183.78 192.84 181.99 192.86 180.13C192.98 171.94 199.71 165.4 207.91 165.52C213.94 165.61 219.06 169.3 221.3 174.5L221.31 174.49Z" fill="#474747"/>
<path d="M207.12 175.416C207.168 172.699 205.005 170.458 202.288 170.409C199.571 170.361 197.33 172.524 197.281 175.241C197.233 177.958 199.396 180.199 202.113 180.248C204.83 180.296 207.072 178.133 207.12 175.416Z" fill="#D3D3D3"/>
<path d="M219.26 183.43C220.06 183.99 218.87 189.13 215.16 191.04C211.87 192.74 207.57 191.38 207.49 190.42C207.43 189.72 209.67 189.57 213.46 187.37C217.45 185.05 218.71 183.04 219.26 183.43Z" fill="#E2E2E2"/>
<path d="M288.47 181.78C288.32 189.97 281.57 196.49 273.38 196.34C267.05 196.23 261.72 192.17 259.69 186.55C259.09 184.9 258.78 183.11 258.81 181.24C258.96 173.05 265.71 166.53 273.91 166.68C279.94 166.79 285.06 170.48 287.28 175.68C288.08 177.55 288.51 179.61 288.47 181.77V181.78Z" fill="#232323"/>
<path d="M273.91 166.69C279.94 166.8 285.06 170.49 287.28 175.69C288.08 177.56 288.51 179.62 288.47 181.78C288.32 189.97 281.57 196.49 273.38 196.34C267.05 196.23 261.72 192.17 259.69 186.55C259.09 184.9 258.78 183.11 258.81 181.24C258.96 173.05 265.71 166.53 273.9 166.68L273.91 166.69ZM273.95 164.16C264.37 163.99 256.44 171.64 256.27 181.21C256.23 183.34 256.58 185.43 257.3 187.42C259.73 194.15 266.17 198.75 273.33 198.88C282.9 199.05 290.83 191.4 291 181.83C291.04 179.35 290.57 176.95 289.6 174.69C286.92 168.42 280.78 164.28 273.95 164.16Z" fill="#EDEDED"/>
<path d="M287.27 175.66C281.5 188.94 267.77 188.3 259.72 186.6C259.12 184.95 258.8 183.16 258.82 181.3C258.94 173.11 265.67 166.57 273.87 166.69C279.9 166.78 285.02 170.47 287.26 175.67L287.27 175.66Z" fill="#474747"/>
<path d="M273.084 176.587C273.132 173.871 270.969 171.629 268.252 171.581C265.535 171.532 263.294 173.695 263.245 176.412C263.197 179.129 265.36 181.371 268.077 181.419C270.794 181.467 273.035 179.304 273.084 176.587Z" fill="#D3D3D3"/>
<path d="M285.219 184.61C286.019 185.17 284.829 190.31 281.119 192.22C277.829 193.92 273.529 192.56 273.449 191.6C273.389 190.9 275.629 190.75 279.419 188.55C283.409 186.23 284.669 184.22 285.219 184.61Z" fill="#E2E2E2"/>
<path d="M244.86 159.03C244.99 160.02 238.28 162.22 231.37 162.73C220.15 163.56 209.96 159.83 210.13 158.6C210.21 158.03 217.29 158.09 231.45 158.23C242.83 158.34 244.8 158.51 244.86 159.03Z" fill="#E2E2E2"/>
<path d="M145.616 94.588C148.541 93.6899 150.184 90.5907 149.286 87.6658C148.388 84.741 145.289 83.098 142.364 83.9961C139.439 84.8942 137.796 87.9934 138.694 90.9183C139.592 93.8431 142.691 95.4861 145.616 94.588Z" fill="#474747"/>
<path d="M240.31 245.17C230.64 245 223.18 241.44 217.81 236.92C230.97 235.42 256.85 231.16 271.18 219.89C271.53 219.88 271.86 219.88 272.2 219.89C280.08 220.03 269.97 245.71 240.31 245.18V245.17Z" fill="#232323"/>
<path d="M339.33 168.8C337.75 168.8 336.47 167.27 336.47 165.38V115.48C336.47 113.59 337.75 112.06 339.33 112.06C340.91 112.06 342.19 113.59 342.19 115.48V165.38C342.19 167.27 340.91 168.8 339.33 168.8Z" fill="#232323"/>
<path d="M337.66 171.53H330.16C330.16 128.51 289.73 93.4999 240.04 93.4999C190.35 93.4999 149.92 128.5 149.92 171.53H142.42C142.42 123.56 186.21 84.5399 240.03 84.5399C293.85 84.5399 337.64 123.56 337.64 171.53H337.66Z" fill="#232323"/>
<path d="M135.57 159.91H149.61C151.76 159.91 153.51 161.66 153.51 163.81V216.32C153.51 218.47 151.76 220.22 149.61 220.22H135.57C133.42 220.22 131.67 218.47 131.67 216.32V163.81C131.67 161.66 133.42 159.91 135.57 159.91Z" fill="#474747"/>
<path d="M274.74 270.97C273.09 270.97 271.71 269.43 271.62 267.43C271.53 265.37 272.85 263.61 274.57 263.5C326.21 260.23 333.01 216.22 333.28 214.35C333.57 212.32 335.16 210.95 336.87 211.28C338.57 211.62 339.72 213.53 339.44 215.56C339.37 216.08 331.72 267.35 274.9 270.95C274.84 270.95 274.79 270.95 274.73 270.95L274.74 270.97Z" fill="#232323"/>
<path d="M329.34 159.91H343.38C345.53 159.91 347.28 161.66 347.28 163.81V216.32C347.28 218.47 345.53 220.22 343.38 220.22H329.34C327.19 220.22 325.44 218.47 325.44 216.32V163.81C325.44 161.66 327.19 159.91 329.34 159.91Z" fill="#474747"/>
<path d="M253.11 267.23C253.11 260.72 257.52 255.45 262.96 255.45H273.59C279.03 255.45 283.44 260.72 283.44 267.23C283.44 273.74 279.03 279.01 273.59 279.01H262.96C257.52 279.01 253.11 273.74 253.11 267.23Z" fill="#232323"/>
<defs>
<filter id="filter0_d_1_211" x="0.77002" y="0.699951" width="500" height="500" filterUnits="userSpaceOnUse" color-interpolation-filters="sRGB">
<feFlood flood-opacity="0" result="BackgroundImageFix"/>
<feColorMatrix in="SourceAlpha" type="matrix" values="0 0 0 0 0 0 0 0 0 0 0 0 0 0 0 0 0 0 127 0" result="hardAlpha"/>
<feOffset dx="7" dy="7"/>
<feGaussianBlur stdDeviation="12"/>
<feColorMatrix type="matrix" values="0 0 0 0 0 0 0 0 0 0 0 0 0 0 0 0 0 0 0.52 0"/>
<feBlend mode="normal" in2="BackgroundImageFix" result="effect1_dropShadow_1_211"/>
<feBlend mode="normal" in="SourceGraphic" in2="effect1_dropShadow_1_211" result="shape"/>
</filter>
</defs>
</svg>
