<svg width="662" height="670" viewBox="0 0 662 670" fill="none" xmlns="http://www.w3.org/2000/svg">
<path d="M0.659965 577.57C4.33996 593.83 23.3 591.19 48.77 579.51C79.2 565.56 122.41 516.77 113.43 477.83C112.61 474.27 111.37 470.82 109.63 467.47C88.88 427.35 5.81996 539 1.73996 557.31C-0.190035 565.98 -0.470035 572.64 0.649965 577.57H0.659965Z" fill="#EDEDED"/>
<path d="M0.660024 577.57C4.34002 593.83 23.3 591.19 48.77 579.51C79.2 565.56 122.41 516.77 113.43 477.83C100.02 511.34 68.34 565.11 0.650024 577.57H0.660024Z" fill="#E2E2E2"/>
<path d="M69.22 483.3C62.02 491.14 51.34 505.22 53.85 507.89C56.42 510.62 72.82 501.53 83.97 488.22C91.59 479.13 98.16 466.41 95.65 464.24C92.82 461.79 78.61 473.08 69.22 483.3Z" fill="#D3D3D3"/>
<path d="M389.18 522.22C389.18 590 341.63 669.62 266.07 669.62C219.25 669.62 180.72 640.96 158.2 602.63C144.35 579.1 136.54 551.93 136.54 525.52C136.54 456.08 212.33 459.39 260.36 459.39C313.04 459.39 375.57 455.35 387.23 504.41C388.51 509.7 389.17 515.61 389.17 522.21L389.18 522.22Z" fill="#EDEDED"/>
<path d="M389.18 522.22C389.18 590 341.63 669.62 266.07 669.62C219.25 669.62 180.72 640.96 158.2 602.63C205.12 624.72 338.78 670.47 387.24 504.41C388.52 509.7 389.18 515.61 389.18 522.21V522.22Z" fill="#E2E2E2"/>
<path d="M162.7 498.61C152.89 514.61 159.83 537.39 176.68 546.33C194.49 555.78 218.73 547.31 225.35 528.52C231.64 510.68 219.52 490.68 202.15 485.07C188.22 480.57 170.86 485.31 162.7 498.61Z" fill="#D3D3D3"/>
<path d="M493.72 571.4C492.96 602.55 485.7 621.57 465.03 611.67C461.48 609.97 457.53 607.42 453.15 603.93C438.48 592.23 374.58 468.62 419.74 467.56C431.41 467.29 442.04 471.66 451.39 478.91C478.21 499.73 494.39 544.32 493.73 571.39L493.72 571.4Z" fill="#EDEDED"/>
<path d="M493.72 571.4C492.96 602.55 485.7 621.57 465.03 611.67C471.72 595.2 477.66 557.2 451.39 478.91C478.21 499.73 494.39 544.32 493.73 571.39L493.72 571.4Z" fill="#E2E2E2"/>
<path d="M432.85 526.7C441.2 546.06 453.64 579.76 450.06 581.41C446.84 582.9 430.14 558.54 421.17 530.38C416.17 514.7 413.04 496.2 415.64 495.34C418.86 494.26 430.26 520.67 432.85 526.69V526.7Z" fill="#D3D3D3"/>
<path d="M107.52 336C102.34 332.41 98.01 327.95 94.66 322.94C86.96 311.44 84.37 297.04 88.19 283.53C92.07 269.83 102.09 258.75 115.05 253.08C118.71 251.47 122.62 250.28 126.69 249.61C145.54 300.82 107.52 336 107.52 336Z" fill="#EDEDED"/>
<path d="M107.52 336C102.34 332.41 98.0099 327.95 94.6599 322.94C98.3499 312.54 101.95 301.53 105.37 289.92C109.14 277.13 112.33 264.82 115.04 253.08C118.7 251.47 122.61 250.28 126.68 249.61C120.29 278.41 113.9 307.2 107.51 336H107.52Z" fill="#E2E2E2"/>
<path d="M378.46 341.94C385.67 408.89 238.12 458.19 160.01 431.1C138.31 423.57 121.97 410.14 115.79 389.56C87.3799 294.91 135.31 194.84 208.81 181.52C235.45 176.69 268.59 181.22 298.59 199.11C337.04 222.01 370.38 266.82 378.46 341.94Z" fill="#EDEDED"/>
<path d="M94.8499 290.59C94.2599 290.4 80.1999 285.74 67.2099 271.22C55.3199 257.94 42.1199 233.53 46.7199 192.65L53.9399 193.46C50.5099 223.95 56.7099 248.39 72.3699 266.08C84.0499 279.28 96.9599 283.63 97.0899 283.67L94.8499 290.58V290.59Z" fill="#E2E2E2"/>
<path d="M51.5699 201.31C60.909 201.31 68.4799 193.739 68.4799 184.4C68.4799 175.061 60.909 167.49 51.5699 167.49C42.2308 167.49 34.6599 175.061 34.6599 184.4C34.6599 193.739 42.2308 201.31 51.5699 201.31Z" fill="#232323"/>
<path d="M328.56 290.7C330.96 303.96 317.89 314.76 300.01 323.01C281.18 331.71 257.01 337.57 239.97 340.49C215.58 344.67 167.86 348.96 148.13 336.6C143.5 333.71 140.42 329.89 139.53 324.96C136.93 310.6 140.55 296.51 148.52 285.33C156.49 274.16 168.81 265.92 183.58 263.24L265.66 248.36C282.83 245.25 299.54 250.35 311.53 260.8C320.18 268.34 326.39 278.66 328.57 290.68L328.56 290.7Z" fill="#474747"/>
<path d="M328.56 290.7C330.96 303.96 317.89 314.76 300.01 323.01C281.18 331.71 257.01 337.57 239.97 340.49C215.58 344.67 167.86 348.96 148.13 336.6C196.09 326.41 276.62 303.64 311.53 260.81C320.18 268.35 326.39 278.67 328.57 290.69L328.56 290.7Z" fill="#232323"/>
<path d="M253.03 399.71C237.45 402.53 224.34 399.21 214.27 393.67C196.19 383.76 187.93 366.73 192.91 365.42C200.66 363.39 221.11 369.37 242.28 365.54C266.6 361.13 282.07 352 294.48 349.22C295.04 349.09 295.58 348.98 296.12 348.88C308.82 346.58 300.82 391.04 253.03 399.71Z" fill="#474747"/>
<path d="M378.46 341.94C385.67 408.89 238.12 458.19 160.01 431.1C204.61 430.44 336.38 422.85 348.31 356.54C358.57 299.52 320.99 232.73 298.59 199.11C337.04 222.01 370.38 266.82 378.46 341.94Z" fill="#E2E2E2"/>
<path d="M135.91 261.9C140.76 266.36 162.88 251.18 176.89 236.35C190.32 222.14 202.88 201.28 198.46 196.83C194.54 192.87 177.93 202.54 167.83 210.51C145.22 228.34 130.63 257.05 135.91 261.91V261.9Z" fill="#D3D3D3"/>
<path d="M119.47 371.09C123.24 388.64 137.07 403.44 141.23 401.51C145.59 399.48 139.91 378.73 135.69 367.53C134.48 364.31 127.08 344.63 122.34 345.58C118.61 346.33 117.03 359.72 119.47 371.09Z" fill="#D3D3D3"/>
<path d="M203.76 301.77C206.15 314.96 197.39 327.6 184.2 329.99C174 331.84 164.14 327.04 159.08 318.67C157.59 316.21 156.51 313.44 155.97 310.43C153.58 297.24 162.34 284.6 175.54 282.21C185.25 280.45 194.66 284.73 199.89 292.38C201.78 295.12 203.13 298.29 203.76 301.77Z" fill="#232323"/>
<path d="M175.54 282.22C185.25 280.46 194.66 284.74 199.9 292.39C201.79 295.13 203.14 298.3 203.77 301.78C206.16 314.97 197.4 327.61 184.21 330C174.01 331.85 164.15 327.05 159.09 318.68C157.6 316.22 156.52 313.45 155.98 310.44C153.59 297.25 162.34 284.61 175.54 282.22ZM174.8 278.13C159.37 280.93 149.09 295.75 151.89 311.18C152.51 314.61 153.74 317.85 155.53 320.82C161.59 330.84 173.41 336.17 184.94 334.08C200.36 331.28 210.64 316.46 207.84 301.04C207.12 297.05 205.59 293.35 203.3 290.03C196.99 280.81 185.8 276.14 174.79 278.14L174.8 278.13Z" fill="#EDEDED"/>
<path d="M199.87 292.34C194.86 315.52 172.62 318.89 159.16 318.74C157.66 316.28 156.58 313.51 156.02 310.51C153.58 297.32 162.3 284.66 175.49 282.22C185.2 280.43 194.61 284.71 199.87 292.34Z" fill="#474747"/>
<path d="M170.92 307.716C175.3 306.922 178.207 302.727 177.412 298.347C176.618 293.967 172.423 291.061 168.043 291.855C163.663 292.65 160.757 296.844 161.551 301.224C162.345 305.604 166.54 308.511 170.92 307.716Z" fill="#D3D3D3"/>
<path d="M199.45 307.35C200.91 307.99 200.65 316.63 195.31 320.89C190.57 324.67 183.23 323.86 182.79 322.36C182.47 321.26 186.02 320.29 191.39 315.55C197.04 310.55 198.43 306.92 199.45 307.36V307.35Z" fill="#E2E2E2"/>
<path d="M310.03 282.51C312.42 295.7 303.66 308.34 290.47 310.73C280.27 312.58 270.41 307.78 265.35 299.41C263.86 296.95 262.78 294.18 262.24 291.17C259.85 277.98 268.61 265.34 281.81 262.95C291.52 261.19 300.93 265.47 306.16 273.12C308.05 275.86 309.4 279.03 310.03 282.51Z" fill="#232323"/>
<path d="M281.81 262.95C291.52 261.19 300.93 265.47 306.17 273.12C308.06 275.86 309.41 279.03 310.04 282.51C312.43 295.7 303.67 308.34 290.48 310.73C280.28 312.58 270.42 307.78 265.36 299.41C263.87 296.95 262.79 294.18 262.25 291.17C259.86 277.98 268.61 265.34 281.81 262.95ZM281.07 258.87C265.64 261.67 255.36 276.49 258.16 291.92C258.78 295.35 260.01 298.59 261.8 301.56C267.86 311.58 279.68 316.91 291.21 314.82C306.63 312.02 316.91 297.2 314.11 281.78C313.39 277.79 311.86 274.09 309.57 270.77C303.26 261.55 292.07 256.88 281.06 258.88L281.07 258.87Z" fill="#EDEDED"/>
<path d="M306.13 273.07C301.12 296.25 278.88 299.62 265.42 299.47C263.92 297.01 262.84 294.24 262.28 291.24C259.84 278.05 268.56 265.39 281.75 262.95C291.46 261.16 300.87 265.44 306.13 273.07Z" fill="#474747"/>
<path d="M277.187 288.441C281.567 287.646 284.474 283.452 283.679 279.072C282.885 274.692 278.69 271.785 274.31 272.58C269.93 273.374 267.024 277.569 267.818 281.949C268.612 286.329 272.807 289.235 277.187 288.441Z" fill="#D3D3D3"/>
<path d="M305.72 288.08C307.18 288.72 306.92 297.36 301.58 301.62C296.84 305.4 289.5 304.59 289.06 303.09C288.74 301.99 292.29 301.02 297.66 296.28C303.31 291.28 304.7 287.65 305.72 288.09V288.08Z" fill="#E2E2E2"/>
<path d="M232.71 259.97C233.23 261.51 223.17 267.2 212.24 270.24C194.5 275.17 176.93 272.46 176.82 270.41C176.77 269.47 188.15 267.29 210.93 262.98C229.23 259.51 232.45 259.15 232.72 259.97H232.71Z" fill="#E2E2E2"/>
<path d="M52.7157 188.358C57.1237 185.979 58.7682 180.476 56.3887 176.068C54.0093 171.66 48.507 170.016 44.099 172.395C39.691 174.775 38.0465 180.277 40.4259 184.685C42.8053 189.093 48.3076 190.738 52.7157 188.358Z" fill="#474747"/>
<path d="M253.03 399.71C237.45 402.53 224.34 399.21 214.27 393.67C234.92 387.05 275.1 371.91 294.49 349.22C295.05 349.09 295.59 348.98 296.13 348.88C308.83 346.58 300.83 391.04 253.04 399.71H253.03Z" fill="#232323"/>
<path d="M437.427 120.19C437.427 120.19 406.817 161.74 347.197 158.02C347.197 158.02 350.267 157.94 355.147 156.31C364.817 153.08 381.587 143.76 395.567 116.87L425.117 119.21L437.427 120.18V120.19Z" fill="#C94C9A"/>
<path d="M657.807 49.0199C598.747 144.36 410.567 114.77 342.987 100.56C332.407 89.4999 326.406 75.6499 327.046 60.7699C327.796 43.3899 337.477 27.9199 352.497 16.9299C367.527 5.94994 387.897 -0.550057 410.087 0.0399429L583.716 4.65994C618.886 5.59994 647.997 24.0999 657.797 49.0199H657.807Z" fill="#C94C9A"/>
<path d="M561.227 129.96L578.087 130.42H578.257C600.437 131.01 620.817 124.5 635.847 113.52C650.877 102.52 660.547 87.0499 661.297 69.6899C661.607 62.4899 660.367 55.5499 657.807 49.0299C598.747 144.37 410.567 114.78 342.987 100.57C357.067 115.32 379.277 125.12 404.617 125.79L498.387 128.3L539.567 129.4L561.217 129.97L561.227 129.96Z" fill="#C94C9A"/>
<path d="M499.177 39.12C500.897 60.17 467.607 78.97 424.827 81.12C382.037 83.27 345.957 67.95 344.227 46.9C342.507 25.85 375.797 7.05 418.577 4.9C461.367 2.75 497.447 18.07 499.177 39.12Z" fill="#C94C9A"/>
<path d="M437.427 120.19C437.427 120.19 406.817 161.74 347.197 158.02C347.197 158.02 350.217 157.49 355.147 156.31C371.297 152.44 407.887 141.55 425.117 119.21L437.427 120.18V120.19Z" fill="#C94C9A"/>
<path d="M421.48 57.8778L417.958 57.7954C417.774 56.7776 417.43 55.8791 416.927 55.1001C416.434 54.3213 415.824 53.6629 415.098 53.125C414.381 52.5778 413.581 52.1612 412.698 51.8753C411.814 51.5894 410.889 51.4352 409.924 51.4126C408.163 51.3714 406.557 51.779 405.107 52.6355C403.666 53.4922 402.504 54.7769 401.621 56.4897C400.747 58.2027 400.281 60.3183 400.222 62.8366C400.163 65.3548 400.53 67.4899 401.323 69.2419C402.125 70.9941 403.225 72.3317 404.624 73.2549C406.033 74.1782 407.618 74.6605 409.379 74.7017C410.344 74.7243 411.275 74.6134 412.171 74.3692C413.068 74.1249 413.886 73.7509 414.627 73.2473C415.378 72.7344 416.018 72.1005 416.547 71.3457C417.086 70.5815 417.472 69.7002 417.703 68.7015L421.225 68.7839C420.925 70.264 420.411 71.5829 419.683 72.7404C418.955 73.8979 418.061 74.8763 417 75.6756C415.94 76.4654 414.756 77.0582 413.449 77.4539C412.152 77.8498 410.769 78.0305 409.302 77.9962C406.821 77.9382 404.63 77.2807 402.727 76.0237C400.824 74.7668 399.345 73.0082 398.289 70.7481C397.234 68.4879 396.742 65.8242 396.814 62.7568C396.886 59.6895 397.501 57.0517 398.661 54.8433C399.821 52.635 401.381 50.9475 403.341 49.7809C405.3 48.6143 407.52 48.06 410.001 48.118C411.468 48.1524 412.841 48.3976 414.118 48.8537C415.405 49.3101 416.56 49.9623 417.582 50.8103C418.604 51.6488 419.452 52.6632 420.125 53.8535C420.798 55.0344 421.25 56.3758 421.48 57.8778ZM432.656 78.6562C431.273 78.6238 430.025 78.3342 428.911 77.7871C427.797 77.2306 426.92 76.4476 426.28 75.438C425.641 74.419 425.338 73.1995 425.371 71.7794C425.401 70.5297 425.67 69.5225 426.181 68.7577C426.691 67.9835 427.364 67.3835 428.198 66.9578C429.032 66.5321 429.949 66.222 430.948 66.0276C431.957 65.8238 432.969 65.6675 433.985 65.5587C435.314 65.4193 436.392 65.3166 437.218 65.2507C438.053 65.1755 438.662 65.0334 439.046 64.8246C439.439 64.6159 439.642 64.2418 439.655 63.7021L439.658 63.5885C439.69 62.1874 439.332 61.0897 438.584 60.2955C437.845 59.5014 436.703 59.0864 435.16 59.0503C433.56 59.0129 432.298 59.3338 431.373 60.0131C430.447 60.6924 429.791 61.4254 429.403 62.212L426.249 61.0015C426.848 59.6894 427.629 58.6752 428.593 57.9589C429.567 57.2334 430.62 56.7371 431.754 56.4699C432.897 56.1936 434.018 56.0682 435.116 56.0939C435.816 56.1103 436.619 56.2143 437.524 56.406C438.438 56.5884 439.316 56.9452 440.156 57.4763C441.005 58.0077 441.702 58.796 442.246 59.8412C442.79 60.8864 443.042 62.2753 443.001 64.0077L442.665 78.3788L439.314 78.3004L439.383 75.3467L439.212 75.3427C438.974 75.8107 438.583 76.3084 438.041 76.8356C437.498 77.3628 436.782 77.8055 435.892 78.1636C435.003 78.5216 433.924 78.6858 432.656 78.6562ZM433.237 75.6576C434.563 75.6886 435.686 75.4544 436.607 74.955C437.537 74.4557 438.244 73.7997 438.727 72.987C439.22 72.1744 439.477 71.3137 439.498 70.4048L439.57 67.3375C439.424 67.5046 439.108 67.6535 438.622 67.7842C438.145 67.9057 437.593 68.0112 436.966 68.1007C436.349 68.181 435.745 68.2521 435.157 68.3141C434.578 68.3669 434.108 68.4127 433.747 68.4516C432.873 68.5449 432.055 68.7104 431.291 68.9483C430.538 69.177 429.923 69.5367 429.447 70.0277C428.982 70.5093 428.739 71.1762 428.719 72.0282C428.691 73.1927 429.102 74.0832 429.949 74.6998C430.806 75.3071 431.902 75.6264 433.237 75.6576ZM452.44 65.4789L452.133 78.6003L448.782 78.5219L449.292 56.7097L452.53 56.7854L452.45 60.1936L452.734 60.2002C453.271 59.1045 454.068 58.2328 455.125 57.585C456.183 56.9277 457.535 56.6183 459.182 56.6569C460.659 56.6914 461.944 57.0246 463.038 57.6564C464.132 58.2787 464.972 59.2077 465.559 60.4434C466.146 61.6695 466.417 63.2104 466.374 65.066L466.05 78.9258L462.698 78.8474L463.017 65.2148C463.057 63.5012 462.644 62.156 461.776 61.179C460.909 60.1925 459.699 59.6811 458.146 59.6448C457.076 59.6198 456.115 59.8294 455.261 60.2735C454.418 60.7179 453.744 61.3794 453.24 62.2581C452.736 63.1367 452.47 64.2103 452.44 65.4789ZM488.077 50.3422L487.397 79.4252L483.875 79.3428L484.556 50.2598L488.077 50.3422ZM508.909 66.7998L508.602 79.9212L505.251 79.8428L505.931 50.7598L509.282 50.8382L509.033 61.5171L509.317 61.5238C509.854 60.4091 510.642 59.5324 511.68 58.8937C512.728 58.2456 514.108 57.9417 515.822 57.9817C517.308 58.0165 518.603 58.3452 519.706 58.9677C520.809 59.5808 521.654 60.5052 522.241 61.7408C522.838 62.9673 523.114 64.5177 523.07 66.3922L522.746 80.252L519.395 80.1736L519.713 66.541C519.754 64.8085 519.336 63.4584 518.458 62.4907C517.591 61.5137 516.367 61.0067 514.786 60.9697C513.687 60.944 512.697 61.1529 511.816 61.5964C510.943 62.0402 510.246 62.7011 509.723 63.5793C509.21 64.4577 508.939 65.5312 508.909 66.7998ZM538.012 81.0638C535.91 81.0146 534.108 80.5083 532.605 79.5449C531.113 78.5722 529.974 77.2384 529.19 75.5435C528.415 73.8393 528.054 71.8701 528.106 69.6358C528.158 67.4016 528.611 65.442 529.465 63.7569C530.329 62.0626 531.506 60.7546 532.995 59.8327C534.495 58.9016 536.229 58.4591 538.198 58.5052C539.334 58.5317 540.452 58.7473 541.551 59.1519C542.649 59.5565 543.643 60.1955 544.532 61.0688C545.421 61.9326 546.119 63.0667 546.627 64.4709C547.134 65.8752 547.363 67.5951 547.316 69.6305L547.282 71.0506L530.469 70.6573L530.537 67.7604L543.942 68.0739C543.971 66.8432 543.75 65.7393 543.281 64.7621C542.82 63.7852 542.147 63.0069 541.261 62.4273C540.384 61.8479 539.34 61.5441 538.128 61.5157C536.793 61.4845 535.63 61.7888 534.64 62.4287C533.659 63.0594 532.896 63.894 532.35 64.9327C531.805 65.9713 531.518 67.0918 531.49 68.2942L531.445 70.2255C531.407 71.8727 531.658 73.2758 532.199 74.4346C532.75 75.5841 533.53 76.4691 534.538 77.0894C535.547 77.7003 536.728 78.0216 538.082 78.0533C538.963 78.0739 539.761 77.9694 540.476 77.7398C541.202 77.5011 541.831 77.1369 542.363 76.6473C542.896 76.1483 543.313 75.5234 543.615 74.7727L546.831 75.7572C546.465 76.8474 545.87 77.7997 545.045 78.614C544.221 79.4188 543.212 80.0393 542.018 80.4755C540.824 80.9022 539.489 81.0983 538.012 81.0638ZM556.184 51.9353L555.503 81.0183L552.152 80.9399L552.832 51.8569L556.184 51.9353ZM561.45 89.3414L562.152 59.3497L565.39 59.4254L565.308 62.8903L565.706 62.8997C565.961 62.5267 566.313 62.0519 566.762 61.4751C567.221 60.8891 567.868 60.3738 568.703 59.9291C569.547 59.4753 570.679 59.2649 572.099 59.2982C573.936 59.3411 575.544 59.8381 576.923 60.7892C578.303 61.7403 579.366 63.0676 580.112 64.7711C580.859 66.4747 581.205 68.472 581.151 70.763C581.097 73.073 580.658 75.0661 579.832 76.7423C579.007 78.4091 577.888 79.6901 576.474 80.5853C575.061 81.471 573.446 81.8927 571.628 81.8501C570.227 81.8174 569.111 81.5592 568.279 81.0756C567.447 80.5825 566.811 80.0325 566.371 79.4254C565.931 78.8089 565.592 78.2989 565.355 77.8955L565.071 77.8889L564.802 89.4198L561.45 89.3414ZM565.191 70.3328C565.153 71.9801 565.36 73.439 565.813 74.7094C566.267 75.9703 566.949 76.9667 567.861 77.6984C568.772 78.4207 569.9 78.7975 571.244 78.829C572.645 78.8617 573.823 78.5199 574.778 77.8034C575.742 77.0776 576.475 76.0907 576.978 74.8427C577.491 73.5854 577.765 72.1804 577.801 70.6278C577.837 69.0941 577.633 67.7064 577.188 66.4646C576.754 65.2136 576.071 64.2172 575.141 63.4756C574.221 62.7247 573.051 62.3326 571.631 62.2994C570.268 62.2675 569.114 62.5863 568.17 63.2557C567.226 63.9156 566.503 64.8554 566.001 66.075C565.499 67.2852 565.229 68.7045 565.191 70.3328ZM590.575 73.6546L590.579 73.4842C590.64 71.6764 590.863 70.2419 591.248 69.1805C591.633 68.1191 592.164 67.2648 592.842 66.6176C593.521 65.9705 594.33 65.3784 595.271 64.8416C595.838 64.5138 596.349 64.1232 596.805 63.6697C597.261 63.2068 597.624 62.6706 597.894 62.0612C598.173 61.4521 598.322 60.7735 598.339 60.0256C598.361 59.0979 598.162 58.2881 597.742 57.5962C597.323 56.9044 596.753 56.3654 596.032 55.9791C595.312 55.5928 594.507 55.3893 593.617 55.3685C592.841 55.3503 592.089 55.4938 591.362 55.7988C590.635 56.1039 590.022 56.5963 589.523 57.2761C589.024 57.9559 588.724 58.8535 588.622 59.9688L585.043 59.8851C585.157 58.2775 585.605 56.9098 586.39 55.782C587.183 54.6544 588.212 53.8023 589.476 53.2256C590.749 52.6492 592.153 52.3789 593.686 52.4147C595.352 52.4537 596.793 52.8189 598.008 53.5104C599.233 54.2021 600.168 55.1334 600.813 56.3041C601.468 57.475 601.778 58.7989 601.743 60.2758C601.719 61.3171 601.536 62.2554 601.194 63.0904C600.862 63.9257 600.39 64.6677 599.778 65.3164C599.176 65.9654 598.452 66.5357 597.607 67.0275C596.762 67.5287 596.081 68.0622 595.566 68.6279C595.051 69.1842 594.671 69.8526 594.425 70.633C594.18 71.4135 594.034 72.3905 593.987 73.5639L593.983 73.7343L590.575 73.6546ZM592.196 82.1039C591.496 82.0875 590.9 81.8226 590.41 81.3091C589.92 80.7956 589.683 80.1886 589.7 79.488C589.716 78.7874 589.981 78.1922 590.495 77.7021C591.008 77.2121 591.615 76.9753 592.316 76.9917C593.016 77.0081 593.612 77.273 594.102 77.7865C594.592 78.3 594.828 78.907 594.812 79.6076C594.801 80.0715 594.673 80.4947 594.427 80.8774C594.191 81.2602 593.876 81.5654 593.482 81.793C593.098 82.0114 592.669 82.115 592.196 82.1039Z" fill="white"/>
</svg>
