<svg width="662" height="670" viewBox="0 0 662 670" fill="none" xmlns="http://www.w3.org/2000/svg">
<path d="M114.33 479.57C110.65 495.83 91.6902 493.19 66.2202 481.51C35.7902 467.56 -7.41985 418.77 1.56015 379.83C2.38015 376.27 3.62015 372.82 5.36015 369.47C26.1102 329.35 109.17 441 113.25 459.31C115.18 467.98 115.46 474.64 114.34 479.57H114.33Z" fill="#EDEDED"/>
<path d="M114.33 479.57C110.65 495.83 91.6902 493.19 66.2202 481.51C35.7902 467.56 -7.41985 418.77 1.56015 379.83C14.9701 413.34 46.6501 467.11 114.34 479.57H114.33Z" fill="#E2E2E2"/>
<path d="M45.7702 385.3C52.9702 393.14 63.6502 407.22 61.1402 409.89C58.5702 412.62 42.1702 403.53 31.0202 390.22C23.4002 381.13 16.8302 368.41 19.3402 366.24C22.1702 363.79 36.3802 375.08 45.7702 385.3Z" fill="#D3D3D3"/>
<path d="M389.4 522.22C389.4 590 341.85 669.62 266.29 669.62C219.47 669.62 180.94 640.96 158.42 602.63C144.57 579.1 136.76 551.93 136.76 525.52C136.76 456.08 212.55 459.39 260.58 459.39C313.26 459.39 375.79 455.35 387.45 504.41C388.73 509.7 389.39 515.61 389.39 522.21L389.4 522.22Z" fill="#EDEDED"/>
<path d="M389.4 522.22C389.4 590 341.85 669.62 266.29 669.62C219.47 669.62 180.94 640.96 158.42 602.63C205.34 624.72 339 670.47 387.46 504.41C388.74 509.7 389.4 515.61 389.4 522.21V522.22Z" fill="#E2E2E2"/>
<path d="M162.92 498.61C153.11 514.61 160.05 537.39 176.9 546.33C194.71 555.78 218.95 547.31 225.57 528.52C231.86 510.68 219.74 490.68 202.37 485.07C188.44 480.57 171.08 485.31 162.92 498.61Z" fill="#D3D3D3"/>
<path d="M493.94 571.4C493.18 602.55 485.92 621.57 465.25 611.67C461.7 609.97 457.75 607.42 453.37 603.93C438.7 592.23 374.8 468.62 419.96 467.56C431.63 467.29 442.26 471.66 451.61 478.91C478.43 499.73 494.61 544.32 493.95 571.39L493.94 571.4Z" fill="#EDEDED"/>
<path d="M493.94 571.4C493.18 602.55 485.92 621.57 465.25 611.67C471.94 595.2 477.88 557.2 451.61 478.91C478.43 499.73 494.61 544.32 493.95 571.39L493.94 571.4Z" fill="#E2E2E2"/>
<path d="M433.07 526.7C441.42 546.06 453.86 579.76 450.28 581.41C447.06 582.9 430.36 558.54 421.39 530.38C416.39 514.7 413.26 496.2 415.86 495.34C419.08 494.26 430.48 520.67 433.07 526.69V526.7Z" fill="#D3D3D3"/>
<path d="M131.26 316.68C126.8 312.22 123.33 307.06 120.94 301.53C115.41 288.84 115.43 274.2 121.6 261.6C127.87 248.81 139.69 239.7 153.46 236.43C157.35 235.5 161.41 235.03 165.54 235.09C174.95 288.84 131.26 316.67 131.26 316.67V316.68Z" fill="#EDEDED"/>
<path d="M131.26 316.68C126.8 312.22 123.33 307.06 120.94 301.53C126.43 291.95 131.94 281.76 137.37 270.95C143.36 259.04 148.7 247.5 153.46 236.43C157.35 235.5 161.41 235.03 165.54 235.09C154.11 262.28 142.69 289.48 131.26 316.67V316.68Z" fill="#E2E2E2"/>
<path d="M396.79 370.85C391.95 438.01 237.96 460.2 165.94 419.61C145.93 408.33 132.25 392.2 129.84 370.85C118.77 272.65 183.79 182.74 258.48 182.74C285.56 182.74 317.35 193.1 343.68 216.06C377.43 245.45 402.24 295.49 396.8 370.85H396.79Z" fill="#EDEDED"/>
<path d="M126.89 269.74C126.34 269.45 113.34 262.35 103.15 245.75C93.8201 230.56 85.1901 204.18 97.0101 164.79L103.97 166.88C95.1501 196.27 96.8901 221.42 109.15 241.63C118.29 256.7 130.22 263.29 130.34 263.35L126.9 269.75L126.89 269.74Z" fill="#E2E2E2"/>
<path d="M103.25 174.45C112.589 174.45 120.16 166.879 120.16 157.54C120.16 148.201 112.589 140.63 103.25 140.63C93.911 140.63 86.3401 148.201 86.3401 157.54C86.3401 166.879 93.911 174.45 103.25 174.45Z" fill="#232323"/>
<path d="M356.83 311.53C356.83 325.01 342.04 333.31 322.97 338.23C302.89 343.43 278.06 344.89 260.78 344.72C236.04 344.48 188.32 340.19 171.11 324.51C167.07 320.84 164.72 316.53 164.72 311.52C164.72 296.92 170.8 283.71 180.63 274.13C190.46 264.57 204.05 258.65 219.07 258.65H302.49C319.94 258.65 335.47 266.65 345.41 279.08C352.58 288.04 356.84 299.3 356.84 311.52L356.83 311.53Z" fill="#474747"/>
<path d="M356.83 311.53C356.83 325.01 342.04 333.31 322.97 338.23C302.89 343.43 278.06 344.89 260.78 344.72C236.04 344.48 188.32 340.19 171.11 324.51C220.12 323.04 303.42 315 345.4 279.08C352.57 288.04 356.83 299.3 356.83 311.52V311.53Z" fill="#232323"/>
<path d="M263.07 405.33C247.24 405.33 234.93 399.72 226 392.48C209.98 379.5 204.89 361.27 210.02 360.87C218.01 360.26 237.07 369.79 258.58 369.79C283.3 369.79 300.15 363.57 312.86 363.05C313.43 363.02 313.98 363.01 314.53 363.01C327.44 363.01 311.64 405.34 263.06 405.34L263.07 405.33Z" fill="#474747"/>
<path d="M396.79 370.85C391.95 438.01 237.96 460.2 165.94 419.61C209.95 426.91 340.95 442.95 364.52 379.84C384.79 325.56 359.73 253.14 343.68 216.06C377.43 245.45 402.24 295.49 396.8 370.85H396.79Z" fill="#E2E2E2"/>
<path d="M172.41 248.83C176.39 254.08 200.86 243.09 217.29 231C233.04 219.41 249.12 201.13 245.57 195.96C242.42 191.37 224.35 197.91 212.99 203.95C187.56 217.46 168.08 243.11 172.42 248.83H172.41Z" fill="#D3D3D3"/>
<path d="M136.76 353.34C137.34 371.28 148.31 388.31 152.74 387.15C157.39 385.93 155.5 364.5 153.35 352.72C152.73 349.34 148.97 328.66 144.13 328.74C140.33 328.81 136.38 341.71 136.76 353.33V353.34Z" fill="#D3D3D3"/>
<path d="M232.06 300.17C232.06 313.58 221.19 324.45 207.78 324.45C197.41 324.45 188.57 317.97 185.08 308.83C184.05 306.14 183.49 303.22 183.49 300.17C183.49 286.76 194.36 275.89 207.78 275.89C217.65 275.89 226.14 281.78 229.93 290.24C231.3 293.27 232.06 296.64 232.06 300.17Z" fill="#232323"/>
<path d="M207.78 275.89C217.65 275.89 226.15 281.78 229.93 290.24C231.3 293.27 232.06 296.64 232.06 300.17C232.06 313.58 221.19 324.45 207.78 324.45C197.41 324.45 188.57 317.97 185.08 308.83C184.05 306.14 183.49 303.22 183.49 300.17C183.49 286.76 194.36 275.89 207.77 275.89H207.78ZM207.78 271.74C192.1 271.74 179.34 284.49 179.34 300.17C179.34 303.65 179.97 307.07 181.2 310.31C185.37 321.25 196.05 328.6 207.77 328.6C223.45 328.6 236.2 315.85 236.2 300.17C236.2 296.12 235.36 292.2 233.7 288.53C229.14 278.34 218.96 271.74 207.77 271.74H207.78Z" fill="#EDEDED"/>
<path d="M229.91 290.19C220.85 312.1 198.36 311.45 185.14 308.9C184.11 306.21 183.53 303.3 183.52 300.25C183.48 286.84 194.31 275.93 207.73 275.89C217.6 275.86 226.1 281.75 229.91 290.19Z" fill="#474747"/>
<path d="M198.66 300.17C203.112 300.17 206.72 296.561 206.72 292.11C206.72 287.658 203.112 284.05 198.66 284.05C194.209 284.05 190.6 287.658 190.6 292.11C190.6 296.561 194.209 300.17 198.66 300.17Z" fill="#D3D3D3"/>
<path d="M226.82 304.88C228.14 305.77 226.34 314.22 220.33 317.46C214.99 320.34 207.92 318.23 207.75 316.67C207.63 315.53 211.3 315.21 217.43 311.5C223.89 307.59 225.9 304.26 226.82 304.88Z" fill="#E2E2E2"/>
<path d="M340.06 300.17C340.06 313.58 329.19 324.45 315.78 324.45C305.41 324.45 296.57 317.97 293.08 308.83C292.05 306.14 291.49 303.22 291.49 300.17C291.49 286.76 302.36 275.89 315.78 275.89C325.65 275.89 334.14 281.78 337.93 290.24C339.3 293.27 340.06 296.64 340.06 300.17Z" fill="#232323"/>
<path d="M315.78 275.89C325.65 275.89 334.15 281.78 337.93 290.24C339.3 293.27 340.06 296.64 340.06 300.17C340.06 313.58 329.19 324.45 315.78 324.45C305.41 324.45 296.57 317.97 293.08 308.83C292.05 306.14 291.49 303.22 291.49 300.17C291.49 286.76 302.36 275.89 315.77 275.89H315.78ZM315.78 271.74C300.1 271.74 287.34 284.49 287.34 300.17C287.34 303.65 287.97 307.07 289.2 310.31C293.37 321.25 304.05 328.6 315.77 328.6C331.45 328.6 344.2 315.85 344.2 300.17C344.2 296.12 343.36 292.2 341.7 288.53C337.14 278.34 326.96 271.74 315.77 271.74H315.78Z" fill="#EDEDED"/>
<path d="M337.91 290.19C328.85 312.1 306.36 311.45 293.14 308.9C292.11 306.21 291.53 303.3 291.52 300.25C291.48 286.84 302.31 275.93 315.73 275.89C325.6 275.86 334.1 281.75 337.91 290.19Z" fill="#474747"/>
<path d="M306.66 300.17C311.112 300.17 314.72 296.561 314.72 292.11C314.72 287.658 311.112 284.05 306.66 284.05C302.209 284.05 298.6 287.658 298.6 292.11C298.6 296.561 302.209 300.17 306.66 300.17Z" fill="#D3D3D3"/>
<path d="M334.82 304.88C336.14 305.77 334.34 314.22 328.33 317.46C322.99 320.34 315.92 318.23 315.75 316.67C315.63 315.53 319.3 315.21 325.43 311.5C331.89 307.59 333.9 304.26 334.82 304.88Z" fill="#E2E2E2"/>
<path d="M268 264.2C268.24 265.81 257.32 269.61 246.02 270.65C227.69 272.34 210.89 266.53 211.13 264.5C211.24 263.57 222.84 263.46 246.02 263.27C264.65 263.12 267.87 263.34 268 264.19V264.2Z" fill="#E2E2E2"/>
<path d="M103.676 161.619C108.438 160.064 111.037 154.943 109.482 150.181C107.926 145.42 102.805 142.821 98.0435 144.376C93.2819 145.931 90.6828 151.052 92.2382 155.814C93.7936 160.576 98.9146 163.175 103.676 161.619Z" fill="#474747"/>
<path d="M263.07 405.33C247.24 405.33 234.93 399.72 226 392.48C247.5 389.65 289.74 381.92 312.86 363.05C313.43 363.02 313.98 363.01 314.53 363.01C327.44 363.01 311.64 405.34 263.06 405.34L263.07 405.33Z" fill="#232323"/>
<path d="M437.65 120.19C437.65 120.19 407.04 161.74 347.42 158.02C347.42 158.02 350.49 157.94 355.37 156.31C365.04 153.08 381.81 143.76 395.79 116.87L425.34 119.21L437.65 120.18V120.19Z" fill="#C94C9A"/>
<path d="M658.03 49.0199C598.97 144.36 410.79 114.77 343.21 100.56C332.63 89.4999 326.63 75.6499 327.27 60.7699C328.02 43.3899 337.7 27.9199 352.72 16.9299C367.75 5.94994 388.12 -0.550057 410.31 0.0399429L583.94 4.65994C619.11 5.59994 648.22 24.0999 658.02 49.0199H658.03Z" fill="#C94C9A"/>
<path d="M561.45 129.96L578.31 130.42H578.48C600.66 131.01 621.04 124.5 636.07 113.52C651.1 102.52 660.77 87.0499 661.52 69.6899C661.83 62.4899 660.59 55.5499 658.03 49.0299C598.97 144.37 410.79 114.78 343.21 100.57C357.29 115.32 379.5 125.12 404.84 125.79L498.61 128.3L539.79 129.4L561.44 129.97L561.45 129.96Z" fill="#C94C9A"/>
<path d="M499.39 39.12C501.11 60.17 467.82 78.97 425.04 81.12C382.25 83.27 346.17 67.95 344.44 46.9C342.72 25.85 376.01 7.05 418.79 4.9C461.58 2.75 497.66 18.07 499.39 39.12Z" fill="#C94C9A"/>
<path d="M437.65 120.19C437.65 120.19 407.04 161.74 347.42 158.02C347.42 158.02 350.44 157.49 355.37 156.31C371.52 152.44 408.11 141.55 425.34 119.21L437.65 120.18V120.19Z" fill="#C94C9A"/>
<path d="M433.919 82.3921L434.667 50.4008L438.541 50.4915L438.208 64.7376L455.266 65.1366L455.599 50.8905L459.473 50.9811L458.725 82.9723L454.851 82.8817L455.186 68.5731L438.128 68.1741L437.793 82.4827L433.919 82.3921ZM476.029 83.8772C473.717 83.8232 471.735 83.2662 470.082 82.2065C468.44 81.1365 467.187 79.6693 466.324 77.8049C465.472 75.9303 465.075 73.7641 465.132 71.3065C465.19 68.8488 465.688 66.6932 466.628 64.8397C467.578 62.976 468.872 61.5371 470.511 60.5231C472.16 59.4989 474.068 59.0121 476.234 59.0628C477.484 59.092 478.713 59.3291 479.922 59.7742C481.13 60.2192 482.224 60.9221 483.201 61.8827C484.179 62.8329 484.947 64.0804 485.505 65.6251C486.063 67.1698 486.316 69.0617 486.263 71.3006L486.227 72.8627L467.732 72.4301L467.806 69.2435L482.552 69.5884C482.584 68.2346 482.341 67.0203 481.825 65.9454C481.318 64.8707 480.578 64.0146 479.603 63.3771C478.638 62.7398 477.49 62.4055 476.157 62.3744C474.688 62.34 473.409 62.6748 472.32 63.3786C471.241 64.0724 470.401 64.9905 469.801 66.133C469.202 67.2755 468.886 68.5081 468.855 69.8306L468.806 71.9551C468.763 73.7671 469.04 75.3104 469.635 76.5851C470.241 77.8496 471.099 78.8231 472.208 79.5054C473.318 80.1774 474.617 80.5308 476.106 80.5656C477.075 80.5883 477.953 80.4734 478.74 80.2209C479.538 79.9582 480.23 79.5576 480.816 79.0191C481.401 78.4702 481.86 77.7828 482.192 76.957L485.73 78.04C485.327 79.2393 484.672 80.2867 483.766 81.1824C482.859 82.0677 481.749 82.7503 480.436 83.2301C479.122 83.6995 477.653 83.9152 476.029 83.8772ZM496.018 51.8359L495.27 83.8272L491.583 83.7409L492.331 51.7497L496.018 51.8359ZM506.456 52.0801L505.708 84.0714L502.022 83.9851L502.77 51.9939L506.456 52.0801ZM522.196 84.9572C520.03 84.9065 518.141 84.3466 516.53 83.2773C514.93 82.2084 513.693 80.7363 512.82 78.8612C511.958 76.9864 511.555 74.8097 511.613 72.3312C511.672 69.8319 512.176 67.6608 513.125 65.8179C514.085 63.9753 515.39 62.5575 517.038 61.5645C518.697 60.5718 520.61 60.1008 522.776 60.1515C524.942 60.2021 526.825 60.7619 528.426 61.8309C530.037 62.9001 531.273 64.3774 532.136 66.2626C533.009 68.1481 533.416 70.3405 533.357 72.8399C533.299 75.3184 532.79 77.4737 531.831 79.3059C530.881 81.1384 529.577 82.551 527.918 83.5437C526.269 84.5367 524.362 85.0078 522.196 84.9572ZM522.273 81.6456C523.919 81.6841 525.282 81.294 526.364 80.4753C527.446 79.6566 528.258 78.5659 528.801 77.2033C529.343 75.8406 529.633 74.3574 529.671 72.7536C529.708 71.1499 529.488 69.6496 529.01 68.2526C528.532 66.8556 527.772 65.7177 526.73 64.8389C525.688 63.9602 524.344 63.5015 522.699 63.463C521.053 63.4246 519.689 63.8199 518.607 64.6489C517.525 65.478 516.713 66.5791 516.17 67.9522C515.627 69.3253 515.337 70.8137 515.3 72.4175C515.262 74.0212 515.482 75.5163 515.961 76.9029C516.439 78.2895 517.199 79.4169 518.241 80.2853C519.284 81.1537 520.628 81.6071 522.273 81.6456ZM544.329 52.966L543.479 75.9524L539.855 75.8676L540.08 52.8666L544.329 52.966ZM541.45 85.1575C540.68 85.1395 540.025 84.848 539.486 84.2832C538.947 83.7183 538.686 83.0506 538.704 82.28C538.722 81.5094 539.014 80.8545 539.579 80.3155C540.143 79.7765 540.811 79.516 541.582 79.534C542.352 79.5521 543.007 79.8435 543.546 80.4083C544.085 80.9732 544.346 81.6409 544.328 82.4115C544.316 82.9218 544.175 83.3874 543.904 83.8083C543.644 84.2294 543.298 84.5651 542.865 84.8155C542.443 85.0557 541.971 85.1697 541.45 85.1575ZM556.572 53.2524L555.721 76.2388L552.097 76.154L552.323 53.153L556.572 53.2524ZM553.693 85.4439C552.922 85.4258 552.268 85.1344 551.729 84.5696C551.19 84.0047 550.929 83.337 550.947 82.5664C550.965 81.7957 551.257 81.1409 551.821 80.6019C552.386 80.0629 553.054 79.8024 553.825 79.8204C554.595 79.8384 555.25 80.1299 555.789 80.6947C556.328 81.2596 556.589 81.9273 556.571 82.6979C556.559 83.2082 556.417 83.6738 556.147 84.0946C555.887 84.5158 555.541 84.8515 555.108 85.1019C554.685 85.342 554.214 85.4561 553.693 85.4439ZM568.814 53.5388L567.964 76.5252L564.34 76.4404L564.566 53.4394L568.814 53.5388ZM565.936 85.7303C565.165 85.7122 564.51 85.4208 563.971 84.8559C563.432 84.2911 563.172 83.6234 563.19 82.8527C563.208 82.0821 563.499 81.4273 564.064 80.8883C564.629 80.3493 565.297 80.0888 566.067 80.1068C566.838 80.1248 567.493 80.4162 568.032 80.9811C568.571 81.5459 568.831 82.2137 568.813 82.9843C568.801 83.4946 568.66 83.9601 568.39 84.381C568.13 84.8021 567.783 85.1379 567.35 85.3882C566.928 85.6284 566.456 85.7424 565.936 85.7303Z" fill="white"/>
</svg>
