<svg width="509" height="568" viewBox="0 0 509 568" fill="none" xmlns="http://www.w3.org/2000/svg">
<path d="M14.0699 242.51C-2.51012 244.2 -2.19012 263.33 6.31988 290.04C16.4899 321.93 59.6799 370.73 99.4199 366.54H99.4299C103.05 366.16 106.63 365.34 110.17 364.03C152.5 348.29 51.7399 252.32 34.0499 246.06C25.6699 243.09 19.0999 242.01 14.0699 242.53V242.51Z" fill="#EDEDED"/>
<path d="M14.0699 242.51C-2.51012 244.2 -2.19012 263.33 6.31988 290.04C16.4899 321.93 59.6799 370.73 99.4199 366.54C67.7799 349.17 18.2399 311.22 14.0699 242.52V242.51Z" fill="#E2E2E2"/>
<path d="M99.3399 321.98C92.4299 313.88 79.7499 301.57 76.7899 303.75C73.7699 305.97 80.8099 323.35 92.6699 336.03C100.77 344.69 112.6 352.75 115.05 350.53C117.82 348.01 108.34 332.54 99.3299 321.98H99.3399Z" fill="#D3D3D3"/>
<path d="M379.31 420.54C379.31 488.32 331.76 567.94 256.2 567.94C209.38 567.94 170.85 539.28 148.33 500.95C134.48 477.42 126.67 450.25 126.67 423.84C126.67 354.4 202.46 357.71 250.49 357.71C303.17 357.71 365.7 353.67 377.36 402.73C378.64 408.02 379.3 413.93 379.3 420.53L379.31 420.54Z" fill="#EDEDED"/>
<path d="M379.31 420.54C379.31 488.32 331.76 567.94 256.2 567.94C209.38 567.94 170.85 539.28 148.33 500.95C195.25 523.04 328.91 568.79 377.37 402.73C378.65 408.02 379.31 413.93 379.31 420.53V420.54Z" fill="#E2E2E2"/>
<path d="M152.84 396.92C143.03 412.92 149.97 435.7 166.82 444.64C184.63 454.09 208.87 445.62 215.49 426.83C221.78 408.99 209.66 388.99 192.29 383.38C178.36 378.88 161 383.62 152.84 396.92Z" fill="#D3D3D3"/>
<path d="M442.19 373.99C413.85 386.94 393.57 388.73 393.42 365.81C393.4 361.88 393.96 357.2 395.18 351.74C399.28 333.43 482.46 221.88 503.17 262.02C508.52 272.4 509.25 283.87 506.82 295.45C499.83 328.67 466.82 362.74 442.19 373.99Z" fill="#EDEDED"/>
<path d="M442.19 373.99C413.85 386.94 393.57 388.73 393.42 365.81C411.16 364.62 447.93 353.32 506.82 295.45C499.83 328.67 466.82 362.74 442.19 373.99Z" fill="#E2E2E2"/>
<path d="M455.75 299.69C442 315.67 417.14 341.6 414.09 339.11C411.34 336.86 425.94 311.19 447.33 290.8C459.24 279.44 474.5 268.54 476.42 270.49C478.8 272.92 460.04 294.72 455.76 299.69H455.75Z" fill="#D3D3D3"/>
<path d="M142.74 178.26C139.41 172.9 137.2 167.1 136.12 161.17C133.61 147.56 136.95 133.31 145.82 122.43C154.82 111.39 168.41 105.2 182.56 105.14C186.56 105.11 190.62 105.58 194.62 106.57C191.6 161.05 142.74 178.25 142.74 178.25V178.26Z" fill="#EDEDED"/>
<path d="M142.74 178.26C139.41 172.9 137.2 167.1 136.12 161.17C143.63 153.09 151.31 144.41 159.06 135.12C167.59 124.88 175.41 114.85 182.56 105.15C186.56 105.12 190.62 105.59 194.62 106.58C177.33 130.47 160.03 154.37 142.74 178.26Z" fill="#E2E2E2"/>
<path d="M389.07 291.23C369.12 355.54 214.12 342.24 153.17 286.37C136.24 270.85 126.57 252.04 129.06 230.7C140.55 132.55 224.25 59.72 297 76.65C323.37 82.79 351.99 100.09 372.43 128.42C398.63 164.7 411.46 219.06 389.06 291.22L389.07 291.23Z" fill="#EDEDED"/>
<path d="M149.13 131.55C148.66 131.14 137.61 121.28 131.45 102.8C125.81 85.89 123.38 58.24 143.82 22.55L150.12 26.16C134.87 52.79 130.86 77.68 138.21 100.13C143.69 116.88 153.82 126 153.92 126.09L149.12 131.54L149.13 131.55Z" fill="#E2E2E2"/>
<path d="M151.54 33.82C160.879 33.82 168.45 26.2491 168.45 16.91C168.45 7.57086 160.879 0 151.54 0C142.201 0 134.63 7.57086 134.63 16.91C134.63 26.2491 142.201 33.82 151.54 33.82Z" fill="#232323"/>
<path d="M363.6 224.4C360.54 237.52 344.25 242.25 324.57 242.73C303.83 243.24 279.32 239.03 262.52 234.95C238.48 229.11 192.97 214.1 179.76 194.93C176.66 190.44 175.34 185.71 176.48 180.83C179.79 166.61 188.71 155.12 200.46 148.02C212.21 140.93 226.78 138.26 241.4 141.66L322.65 160.57C339.64 164.53 352.96 175.84 359.82 190.2C364.77 200.56 366.37 212.48 363.6 224.39V224.4Z" fill="#474747"/>
<path d="M363.6 224.4C360.54 237.52 344.25 242.25 324.57 242.73C303.83 243.24 279.32 239.03 262.52 234.95C238.48 229.11 192.97 214.1 179.76 194.93C227.82 204.61 310.78 215.67 359.82 190.21C364.77 200.57 366.37 212.49 363.6 224.4Z" fill="#232323"/>
<path d="M248.92 307.5C235.72 304.43 227.1 294.95 221.78 284.08C212.23 264.59 213.34 240.6 217.74 241.09C224.58 241.87 237.67 257.6 255.62 261.78C276.24 266.58 292.11 262 302.87 263.81C303.36 263.88 303.82 263.98 304.28 264.08C315.04 266.59 289.43 316.93 248.93 307.5H248.92Z" fill="#474747"/>
<path d="M389.07 291.23C369.12 355.54 214.12 342.24 153.17 286.37C194.37 303.46 318.33 348.79 355.6 292.66C387.65 244.39 379.66 168.18 372.44 128.42C398.64 164.7 411.47 219.06 389.07 291.22V291.23Z" fill="#E2E2E2"/>
<path d="M198.2 121.51C200.89 127.52 227.21 122.37 245.95 114.32C263.92 106.6 283.72 92.4499 281.44 86.5999C279.41 81.4099 260.33 83.69 247.89 87C220.06 94.4 195.27 114.96 198.2 121.51Z" fill="#D3D3D3"/>
<path d="M139.78 215.21C136.28 232.82 143.09 251.89 147.68 251.76C152.49 251.63 155.5 230.33 156.08 218.37C156.25 214.94 157.27 193.94 152.54 192.93C148.82 192.14 142.05 203.8 139.78 215.21Z" fill="#D3D3D3"/>
<path d="M336.21 221.84C338.65 219.19 330.23 201.46 315.25 197.49C301.94 193.96 287.43 202.34 287.89 205.86C288.23 208.45 296.49 207.21 311.99 212.17C328.31 217.4 334.51 223.69 336.21 221.84Z" fill="#E2E2E2"/>
<path d="M251.54 198.94C253.54 195.94 242.46 179.74 227.05 178.14C213.35 176.72 200.32 187.26 201.32 190.67C202.05 193.18 210.02 190.67 226.11 193.16C243.04 195.78 250.15 201.04 251.54 198.95V198.94Z" fill="#E2E2E2"/>
<path d="M287.82 158.15C287.68 159.77 276.19 161 264.95 159.45C246.71 156.94 231.66 147.48 232.37 145.55C232.69 144.67 244.01 147.19 266.63 152.26C284.8 156.34 287.9 157.28 287.83 158.14L287.82 158.15Z" fill="#E2E2E2"/>
<path d="M151.029 20.9882C156.02 20.5533 159.713 16.1554 159.278 11.165C158.843 6.17473 154.445 2.48179 149.455 2.91663C144.464 3.35147 140.771 7.74943 141.206 12.7397C141.641 17.7301 146.039 21.423 151.029 20.9882Z" fill="#474747"/>
<path d="M248.92 307.5C235.72 304.43 227.1 294.95 221.78 284.08C240.54 284.68 278.04 283.13 302.86 263.81C303.35 263.88 303.81 263.98 304.27 264.08C315.03 266.59 289.42 316.93 248.92 307.5Z" fill="#232323"/>
</svg>
