<svg width="287" height="257" viewBox="0 0 287 257" fill="none" xmlns="http://www.w3.org/2000/svg">
<g clip-path="url(#clip0_1_5)">
<path d="M170.71 27.43C170.71 42.47 158.52 54.66 143.48 54.66C128.45 54.66 116.25 42.47 116.25 27.43C116.25 12.39 128.44 0.200012 143.48 0.200012C158.52 0.200012 170.71 12.39 170.71 27.43Z" fill="#966AAC"/>
<path d="M172.71 30.89C172.71 45.92 160.52 58.12 145.48 58.12C130.44 58.12 118.25 45.93 118.25 30.89C118.25 15.86 130.44 3.66998 145.48 3.66998C160.52 3.66998 172.71 15.86 172.71 30.89Z" fill="#9569AC"/>
<path d="M174.7 34.35C174.7 49.38 162.52 61.57 147.48 61.57C132.45 61.57 120.26 49.39 120.26 34.35C120.26 19.32 132.44 7.13 147.48 7.13C162.51 7.13 174.7 19.32 174.7 34.35Z" fill="#9468AB"/>
<path d="M176.69 37.81C176.69 52.84 164.51 65.02 149.48 65.02C134.45 65.02 122.27 52.84 122.27 37.81C122.27 22.78 134.45 10.6 149.48 10.6C164.51 10.6 176.69 22.79 176.69 37.81Z" fill="#9267AB"/>
<path d="M178.68 41.27C178.68 56.3 166.5 68.47 151.48 68.47C136.45 68.47 124.27 56.29 124.27 41.27C124.27 26.24 136.45 14.07 151.48 14.07C166.5 14.07 178.68 26.25 178.68 41.27Z" fill="#9166AA"/>
<path d="M180.67 44.73C180.67 59.75 168.49 71.93 153.47 71.93C138.45 71.93 126.28 59.75 126.28 44.73C126.28 29.71 138.46 17.53 153.47 17.53C168.5 17.53 180.67 29.72 180.67 44.73Z" fill="#9065AA"/>
<path d="M182.67 48.19C182.67 63.21 170.49 75.38 155.48 75.38C140.46 75.38 128.29 63.2 128.29 48.19C128.29 33.17 140.47 21 155.48 21C170.49 21 182.67 33.18 182.67 48.19Z" fill="#9065AA"/>
<path d="M184.66 51.65C184.66 66.67 172.49 78.84 157.47 78.84C142.45 78.84 130.28 66.67 130.28 51.65C130.28 36.63 142.45 24.46 157.47 24.46C172.49 24.47 184.66 36.64 184.66 51.65Z" fill="#8E64A9"/>
<path d="M186.65 55.11C186.65 70.12 174.48 82.29 159.47 82.29C144.46 82.29 132.29 70.12 132.29 55.11C132.29 40.1 144.46 27.93 159.47 27.93C174.48 27.93 186.65 40.1 186.65 55.11Z" fill="#8E63A9"/>
<path d="M188.64 58.58C188.64 73.59 176.47 85.75 161.47 85.75C146.46 85.75 134.29 73.59 134.29 58.58C134.29 43.57 146.46 31.41 161.47 31.41C176.47 31.41 188.64 43.57 188.64 58.58Z" fill="#8D63A9"/>
<path d="M190.63 62.04C190.63 77.04 178.47 89.21 163.46 89.21C148.46 89.21 136.3 77.04 136.3 62.04C136.3 47.04 148.46 34.87 163.46 34.87C178.47 34.87 190.63 47.03 190.63 62.04Z" fill="#8C62A8"/>
<path d="M192.62 65.5C192.62 80.5 180.46 92.66 165.46 92.66C150.46 92.66 138.3 80.5 138.3 65.5C138.3 50.5 150.46 38.34 165.46 38.34C180.46 38.34 192.62 50.5 192.62 65.5Z" fill="#8B61A8"/>
<path d="M194.62 68.96C194.62 83.95 182.46 96.11 167.47 96.11C152.48 96.11 140.32 83.95 140.32 68.96C140.32 53.97 152.48 41.81 167.47 41.81C182.46 41.8 194.62 53.96 194.62 68.96Z" fill="#8A61A8"/>
<path d="M196.61 72.42C196.61 87.41 184.46 99.57 169.46 99.57C154.47 99.57 142.31 87.42 142.31 72.42C142.31 57.43 154.46 45.27 169.46 45.27C184.46 45.27 196.61 57.42 196.61 72.42Z" fill="#8961A8"/>
<path d="M198.6 75.88C198.6 90.87 186.45 103.02 171.46 103.02C156.47 103.02 144.31 90.87 144.31 75.88C144.31 60.89 156.46 48.74 171.46 48.74C186.45 48.74 198.6 60.89 198.6 75.88Z" fill="#8960A7"/>
<path d="M200.59 79.34C200.59 94.33 188.44 106.48 173.45 106.48C158.46 106.48 146.32 94.33 146.32 79.34C146.32 64.35 158.47 52.2 173.45 52.2C188.44 52.2 200.59 64.35 200.59 79.34Z" fill="#885FA7"/>
<path d="M202.58 82.8C202.58 97.79 190.43 109.93 175.45 109.93C160.47 109.93 148.32 97.79 148.32 82.8C148.32 67.81 160.47 55.67 175.45 55.67C190.44 55.67 202.58 67.81 202.58 82.8Z" fill="#875FA7"/>
<path d="M204.58 86.26C204.58 101.24 192.43 113.38 177.46 113.38C162.48 113.38 150.34 101.23 150.34 86.26C150.34 71.28 162.49 59.14 177.46 59.14C192.43 59.14 204.58 71.28 204.58 86.26Z" fill="#875EA7"/>
<path d="M206.57 89.72C206.57 104.7 194.43 116.84 179.45 116.84C164.47 116.84 152.33 104.7 152.33 89.72C152.33 74.74 164.47 62.6 179.45 62.6C194.43 62.61 206.57 74.74 206.57 89.72Z" fill="#865EA6"/>
<path d="M208.56 93.18C208.56 108.15 196.42 120.29 181.45 120.29C166.47 120.29 154.33 108.15 154.33 93.18C154.33 78.21 166.47 66.07 181.45 66.07C196.42 66.08 208.56 78.21 208.56 93.18Z" fill="#855EA6"/>
<path d="M210.55 96.64C210.55 111.61 198.41 123.75 183.44 123.75C168.48 123.75 156.34 111.61 156.34 96.64C156.34 81.67 168.48 69.53 183.44 69.53C198.41 69.54 210.55 81.67 210.55 96.64Z" fill="#855DA6"/>
<path d="M212.54 100.1C212.54 115.06 200.41 127.2 185.44 127.2C170.48 127.2 158.34 115.06 158.34 100.1C158.34 85.14 170.48 73 185.44 73C200.41 73 212.54 85.14 212.54 100.1Z" fill="#845DA6"/>
<path d="M214.53 103.57C214.53 118.53 202.4 130.66 187.44 130.66C172.48 130.66 160.35 118.53 160.35 103.57C160.35 88.61 172.48 76.48 187.44 76.48C202.41 76.47 214.53 88.6 214.53 103.57Z" fill="#835CA5"/>
<path d="M216.53 107.03C216.53 121.99 204.4 134.11 189.45 134.11C174.49 134.11 162.37 121.99 162.37 107.03C162.37 92.07 174.49 79.95 189.45 79.95C204.4 79.94 216.53 92.06 216.53 107.03Z" fill="#835CA5"/>
<path d="M218.52 110.49C218.52 125.45 206.4 137.57 191.44 137.57C176.48 137.57 164.36 125.45 164.36 110.49C164.36 95.54 176.48 83.41 191.44 83.41C206.4 83.41 218.52 95.53 218.52 110.49Z" fill="#835BA5"/>
<path d="M220.51 113.95C220.51 128.91 208.39 141.03 193.43 141.03C178.48 141.03 166.36 128.91 166.36 113.95C166.36 99 178.48 86.87 193.43 86.87C208.39 86.87 220.51 98.99 220.51 113.95Z" fill="#835BA5"/>
<path d="M222.5 117.41C222.5 132.36 210.38 144.48 195.43 144.48C180.48 144.48 168.36 132.36 168.36 117.41C168.36 102.46 180.48 90.34 195.43 90.34C210.38 90.34 222.5 102.46 222.5 117.41Z" fill="#825BA5"/>
<path d="M224.49 120.87C224.49 135.82 212.38 147.93 197.43 147.93C182.48 147.93 170.37 135.82 170.37 120.87C170.37 105.92 182.48 93.81 197.43 93.81C212.38 93.81 224.49 105.92 224.49 120.87Z" fill="#815AA5"/>
<path d="M226.49 124.33C226.49 139.27 214.38 151.38 199.44 151.38C184.49 151.38 172.39 139.27 172.39 124.33C172.39 109.39 184.5 97.28 199.44 97.28C214.37 97.28 226.49 109.39 226.49 124.33Z" fill="#815AA5"/>
<path d="M228.48 127.79C228.48 142.73 216.37 154.84 201.43 154.84C186.49 154.84 174.38 142.73 174.38 127.79C174.38 112.85 186.49 100.74 201.43 100.74C216.36 100.74 228.48 112.85 228.48 127.79Z" fill="#805AA5"/>
<path d="M230.47 131.25C230.47 146.18 218.36 158.3 203.42 158.3C188.49 158.3 176.38 146.19 176.38 131.25C176.38 116.32 188.49 104.2 203.42 104.2C218.36 104.21 230.47 116.32 230.47 131.25Z" fill="#805AA4"/>
<path d="M232.46 134.71C232.46 149.64 220.35 161.75 205.42 161.75C190.49 161.75 178.38 149.64 178.38 134.71C178.38 119.78 190.49 107.67 205.42 107.67C220.36 107.67 232.46 119.78 232.46 134.71Z" fill="#805AA4"/>
<path d="M234.45 138.17C234.45 153.1 222.35 165.2 207.42 165.2C192.49 165.2 180.39 153.1 180.39 138.17C180.39 123.24 192.49 111.14 207.42 111.14C222.35 111.14 234.45 123.24 234.45 138.17Z" fill="#8059A4"/>
<path d="M236.45 141.63C236.45 156.55 224.35 168.65 209.43 168.65C194.51 168.65 182.41 156.55 182.41 141.63C182.41 126.71 194.51 114.61 209.43 114.61C224.35 114.61 236.45 126.71 236.45 141.63Z" fill="#7F59A4"/>
<path d="M238.44 145.1C238.44 160.02 226.34 172.11 211.43 172.11C196.51 172.11 184.41 160.02 184.41 145.1C184.41 130.18 196.51 118.09 211.43 118.09C226.34 118.08 238.44 130.17 238.44 145.1Z" fill="#7F58A4"/>
<path d="M240.43 148.56C240.43 163.48 228.34 175.57 213.42 175.57C198.5 175.57 186.41 163.47 186.41 148.56C186.41 133.64 198.5 121.55 213.42 121.55C228.34 121.54 240.43 133.64 240.43 148.56Z" fill="#7F58A4"/>
<path d="M242.42 152.02C242.42 166.94 230.33 179.03 215.41 179.03C200.49 179.03 188.4 166.94 188.4 152.02C188.4 137.1 200.49 125.01 215.41 125.01C230.33 125.01 242.42 137.1 242.42 152.02Z" fill="#7E58A4"/>
<path d="M244.41 155.48C244.41 170.39 232.32 182.48 217.41 182.48C202.5 182.48 190.41 170.39 190.41 155.48C190.41 140.57 202.5 128.48 217.41 128.48C232.32 128.48 244.41 140.57 244.41 155.48Z" fill="#7C58A4"/>
<path d="M246.4 158.94C246.4 173.85 234.32 185.93 219.41 185.93C204.5 185.93 192.41 173.85 192.41 158.94C192.41 144.03 204.5 131.95 219.41 131.95C234.32 131.95 246.4 144.03 246.4 158.94Z" fill="#7D57A3"/>
<path d="M248.4 162.4C248.4 177.3 236.32 189.38 221.42 189.38C206.51 189.38 194.43 177.3 194.43 162.4C194.43 147.5 206.51 135.42 221.42 135.42C236.31 135.42 248.4 147.5 248.4 162.4Z" fill="#7B57A3"/>
<path d="M250.39 165.86C250.39 180.76 238.31 192.84 223.41 192.84C208.51 192.84 196.43 180.76 196.43 165.86C196.43 150.96 208.5 138.88 223.41 138.88C238.31 138.88 250.39 150.96 250.39 165.86Z" fill="#7B57A3"/>
<path d="M252.38 169.32C252.38 184.22 240.3 196.3 225.4 196.3C210.51 196.3 198.42 184.23 198.42 169.32C198.42 154.42 210.5 142.34 225.4 142.34C240.3 142.35 252.38 154.42 252.38 169.32Z" fill="#7B57A3"/>
<path d="M254.37 172.78C254.37 187.67 242.29 199.75 227.4 199.75C212.51 199.75 200.43 187.68 200.43 172.78C200.43 157.89 212.5 145.81 227.4 145.81C242.3 145.81 254.37 157.89 254.37 172.78Z" fill="#7B57A3"/>
<path d="M256.36 176.24C256.36 191.13 244.28 203.2 229.4 203.2C214.51 203.2 202.43 191.13 202.43 176.24C202.43 161.35 214.5 149.28 229.4 149.28C244.29 149.28 256.36 161.35 256.36 176.24Z" fill="#7A57A3"/>
<path d="M258.36 179.7C258.36 194.59 246.29 206.65 231.41 206.65C216.52 206.65 204.45 194.58 204.45 179.7C204.45 164.82 216.52 152.75 231.41 152.75C246.29 152.75 258.36 164.82 258.36 179.7Z" fill="#7956A3"/>
<path d="M260.35 183.16C260.35 198.05 248.28 210.11 233.4 210.11C218.52 210.11 206.46 198.04 206.46 183.16C206.46 168.28 218.52 156.21 233.4 156.21C248.28 156.21 260.35 168.28 260.35 183.16Z" fill="#7856A3"/>
<path d="M262.34 186.62C262.34 201.5 250.28 213.56 235.4 213.56C220.52 213.56 208.46 201.49 208.46 186.62C208.46 171.74 220.53 159.68 235.4 159.68C250.28 159.68 262.34 171.75 262.34 186.62Z" fill="#7756A3"/>
<path d="M264.33 190.08C264.33 204.96 252.27 217.02 237.39 217.02C222.51 217.02 210.45 204.96 210.45 190.08C210.45 175.2 222.51 163.14 237.39 163.14C252.27 163.15 264.33 175.21 264.33 190.08Z" fill="#7756A3"/>
<path d="M266.32 193.55C266.32 208.43 254.26 220.48 239.39 220.48C224.51 220.48 212.45 208.43 212.45 193.55C212.45 178.67 224.51 166.62 239.39 166.62C254.26 166.62 266.32 178.67 266.32 193.55Z" fill="#7656A3"/>
<path d="M268.32 197.01C268.32 211.88 256.27 223.93 241.4 223.93C226.52 223.93 214.47 211.88 214.47 197.01C214.47 182.14 226.52 170.09 241.4 170.09C256.26 170.09 268.32 182.14 268.32 197.01Z" fill="#7556A3"/>
<path d="M270.31 200.47C270.31 215.34 258.26 227.39 243.39 227.39C228.53 227.39 216.48 215.34 216.48 200.47C216.48 185.6 228.53 173.55 243.39 173.55C258.25 173.55 270.31 185.6 270.31 200.47Z" fill="#7556A3"/>
<path d="M272.3 203.93C272.3 218.79 260.25 230.84 245.39 230.84C230.53 230.84 218.48 218.79 218.48 203.93C218.48 189.07 230.53 177.02 245.39 177.02C260.25 177.01 272.3 189.07 272.3 203.93Z" fill="#7555A2"/>
<path d="M274.29 207.39C274.29 222.25 262.25 234.3 247.38 234.3C232.52 234.3 220.47 222.26 220.47 207.39C220.47 192.53 232.51 180.49 247.38 180.49C262.25 180.48 274.29 192.53 274.29 207.39Z" fill="#7555A2"/>
<path d="M276.28 210.85C276.28 225.7 264.24 237.75 249.38 237.75C234.52 237.75 222.47 225.71 222.47 210.85C222.47 196 234.51 183.95 249.38 183.95C264.24 183.95 276.28 196 276.28 210.85Z" fill="#7455A2"/>
<path d="M278.27 214.31C278.27 229.16 266.23 241.2 251.38 241.2C236.53 241.2 224.48 229.16 224.48 214.31C224.48 199.46 236.52 187.42 251.38 187.42C266.23 187.42 278.27 199.46 278.27 214.31Z" fill="#7354A2"/>
<path d="M280.27 217.77C280.27 232.62 268.23 244.66 253.38 244.66C238.53 244.66 226.5 232.62 226.5 217.77C226.5 202.92 238.54 190.88 253.38 190.88C268.23 190.88 280.27 202.93 280.27 217.77Z" fill="#7254A2"/>
<path d="M282.26 221.23C282.26 236.08 270.22 248.11 255.38 248.11C240.53 248.11 228.5 236.07 228.5 221.23C228.5 206.38 240.54 194.35 255.38 194.35C270.22 194.35 282.26 206.39 282.26 221.23Z" fill="#7254A2"/>
<path d="M284.25 224.69C284.25 239.54 272.21 251.56 257.38 251.56C242.53 251.56 230.51 239.53 230.51 224.69C230.51 209.84 242.54 197.82 257.38 197.82C272.21 197.82 284.25 209.85 284.25 224.69Z" fill="#7154A2"/>
<path d="M286.24 228.15C286.24 242.99 274.21 255.02 259.37 255.02C244.53 255.02 232.5 242.99 232.5 228.15C232.5 213.31 244.54 201.28 259.37 201.28C274.21 201.29 286.24 213.31 286.24 228.15Z" fill="#7154A2"/>
<path d="M284.66 228.55C284.66 243.39 272.63 255.41 257.79 255.41C242.96 255.41 230.93 243.39 230.93 228.55C230.93 213.71 242.96 201.68 257.79 201.68C272.64 201.69 284.66 213.71 284.66 228.55Z" fill="#7154A2"/>
<path d="M280.93 227.11C280.93 241.94 268.91 253.97 254.07 253.97C239.24 253.97 227.22 241.94 227.22 227.11C227.22 212.28 239.24 200.25 254.07 200.25C268.91 200.25 280.93 212.28 280.93 227.11Z" fill="#7054A2"/>
<path d="M277.2 225.66C277.2 240.49 265.18 252.51 250.35 252.51C235.52 252.51 223.5 240.49 223.5 225.66C223.5 210.83 235.52 198.81 250.35 198.81C265.18 198.81 277.2 210.83 277.2 225.66Z" fill="#7053A2"/>
<path d="M273.47 224.21C273.47 239.03 261.45 251.05 246.63 251.05C231.8 251.05 219.79 239.03 219.79 224.21C219.79 209.39 231.8 197.37 246.63 197.37C261.45 197.37 273.47 209.39 273.47 224.21Z" fill="#6F53A2"/>
<path d="M269.74 222.76C269.74 237.58 257.73 249.6 242.91 249.6C228.09 249.6 216.07 237.59 216.07 222.76C216.07 207.94 228.09 195.93 242.91 195.93C257.73 195.93 269.74 207.94 269.74 222.76Z" fill="#6F53A2"/>
<path d="M266.01 221.32C266.01 236.13 254 248.16 239.18 248.16C224.37 248.16 212.35 236.14 212.35 221.32C212.35 206.51 224.36 194.49 239.18 194.49C254 194.48 266.01 206.5 266.01 221.32Z" fill="#6E53A2"/>
<path d="M262.28 219.87C262.28 234.68 250.27 246.7 235.45 246.7C220.64 246.7 208.63 234.69 208.63 219.87C208.63 205.06 220.63 193.04 235.45 193.04C250.27 193.04 262.28 205.05 262.28 219.87Z" fill="#6D53A2"/>
<path d="M258.55 218.42C258.55 233.23 246.55 245.24 231.73 245.24C216.92 245.24 204.91 233.24 204.91 218.42C204.91 203.61 216.91 191.6 231.73 191.6C246.54 191.6 258.55 203.61 258.55 218.42Z" fill="#6D52A1"/>
<path d="M254.82 216.97C254.82 231.78 242.82 243.78 228.01 243.78C213.2 243.78 201.2 231.78 201.2 216.97C201.2 202.16 213.2 190.16 228.01 190.16C242.81 190.16 254.82 202.17 254.82 216.97Z" fill="#6C52A1"/>
<path d="M251.08 215.52C251.08 230.33 239.08 242.32 224.28 242.32C209.47 242.32 197.47 230.32 197.47 215.52C197.47 200.71 209.47 188.72 224.28 188.72C239.08 188.72 251.08 200.72 251.08 215.52Z" fill="#6C52A1"/>
<path d="M247.35 214.08C247.35 228.88 235.35 240.88 220.55 240.88C205.75 240.88 193.75 228.88 193.75 214.08C193.75 199.28 205.75 187.28 220.55 187.28C235.36 187.27 247.35 199.28 247.35 214.08Z" fill="#6D52A1"/>
<path d="M243.62 212.63C243.62 227.43 231.62 239.43 216.82 239.43C202.02 239.43 190.03 227.43 190.03 212.63C190.03 197.83 202.02 185.83 216.82 185.83C231.63 185.83 243.62 197.83 243.62 212.63Z" fill="#6C52A1"/>
<path d="M239.89 211.18C239.89 225.97 227.89 237.97 213.1 237.97C198.31 237.97 186.31 225.97 186.31 211.18C186.31 196.39 198.31 184.39 213.1 184.39C227.9 184.4 239.89 196.39 239.89 211.18Z" fill="#6B52A1"/>
<path d="M236.16 209.74C236.16 224.53 224.17 236.52 209.38 236.52C194.59 236.52 182.6 224.53 182.6 209.74C182.6 194.95 194.59 182.96 209.38 182.96C224.17 182.96 236.16 194.94 236.16 209.74Z" fill="#6A52A1"/>
<path d="M232.43 208.29C232.43 223.08 220.44 235.06 205.66 235.06C190.87 235.06 178.88 223.08 178.88 208.29C178.88 193.5 190.87 181.52 205.66 181.52C220.44 181.52 232.43 193.5 232.43 208.29Z" fill="#6952A1"/>
<path d="M228.7 206.84C228.7 221.62 216.72 233.61 201.93 233.61C187.15 233.61 175.17 221.62 175.17 206.84C175.17 192.06 187.15 180.07 201.93 180.07C216.72 180.07 228.7 192.06 228.7 206.84Z" fill="#6952A1"/>
<path d="M224.97 205.39C224.97 220.17 212.99 232.15 198.21 232.15C183.43 232.15 171.45 220.17 171.45 205.39C171.45 190.61 183.44 178.63 198.21 178.63C212.99 178.63 224.97 190.61 224.97 205.39Z" fill="#6851A1"/>
<path d="M221.24 203.95C221.24 218.73 209.26 230.71 194.48 230.71C179.7 230.71 167.72 218.73 167.72 203.95C167.72 189.17 179.7 177.19 194.48 177.19C209.26 177.19 221.24 189.17 221.24 203.95Z" fill="#6751A1"/>
<path d="M217.51 202.5C217.51 217.28 205.54 229.25 190.76 229.25C175.98 229.25 164.01 217.28 164.01 202.5C164.01 187.72 175.98 175.75 190.76 175.75C205.53 175.75 217.51 187.72 217.51 202.5Z" fill="#6751A1"/>
<path d="M213.77 201.05C213.77 215.82 201.8 227.79 187.03 227.79C172.25 227.79 160.28 215.82 160.28 201.05C160.28 186.28 172.25 174.31 187.03 174.31C201.8 174.31 213.77 186.28 213.77 201.05Z" fill="#6751A1"/>
<path d="M210.04 199.6C210.04 214.37 198.07 226.34 183.3 226.34C168.54 226.34 156.57 214.37 156.57 199.6C156.57 184.83 168.54 172.86 183.3 172.86C198.07 172.86 210.04 184.84 210.04 199.6Z" fill="#6651A1"/>
<path d="M206.31 198.16C206.31 212.92 194.34 224.89 179.58 224.89C164.82 224.89 152.85 212.92 152.85 198.16C152.85 183.4 164.82 171.43 179.58 171.43C194.35 171.42 206.31 183.4 206.31 198.16Z" fill="#6651A1"/>
<path d="M202.58 196.71C202.58 211.47 190.61 223.44 175.85 223.44C161.09 223.44 149.12 211.47 149.12 196.71C149.12 181.95 161.09 169.98 175.85 169.98C190.62 169.98 202.58 181.95 202.58 196.71Z" fill="#6651A1"/>
<path d="M198.85 195.26C198.85 210.02 186.88 221.98 172.13 221.98C157.37 221.98 145.41 210.02 145.41 195.26C145.41 180.5 157.37 168.54 172.13 168.54C186.88 168.54 198.85 180.5 198.85 195.26Z" fill="#6651A1"/>
<path d="M195.12 193.81C195.12 208.56 183.16 220.52 168.41 220.52C153.66 220.52 141.69 208.56 141.69 193.81C141.69 179.06 153.66 167.1 168.41 167.1C183.16 167.1 195.12 179.06 195.12 193.81Z" fill="#6551A1"/>
<path d="M191.39 192.37C191.39 207.12 179.43 219.08 164.68 219.08C149.94 219.08 137.98 207.12 137.98 192.37C137.98 177.62 149.94 165.66 164.68 165.66C179.43 165.66 191.39 177.61 191.39 192.37Z" fill="#6451A1"/>
<path d="M187.66 190.92C187.66 205.66 175.7 217.62 160.96 217.62C146.22 217.62 134.26 205.66 134.26 190.92C134.26 176.18 146.22 164.22 160.96 164.22C175.7 164.22 187.66 176.17 187.66 190.92Z" fill="#6451A1"/>
<path d="M183.93 189.47C183.93 204.21 171.98 216.16 157.24 216.16C142.5 216.16 130.55 204.21 130.55 189.47C130.55 174.73 142.5 162.78 157.24 162.78C171.98 162.78 183.93 174.73 183.93 189.47Z" fill="#6451A1"/>
<path d="M180.2 188.02C180.2 202.76 168.25 214.71 153.51 214.71C138.77 214.71 126.82 202.76 126.82 188.02C126.82 173.28 138.76 161.33 153.51 161.33C168.25 161.34 180.2 173.29 180.2 188.02Z" fill="#6351A1"/>
<path d="M176.46 186.58C176.46 201.32 164.52 213.26 149.78 213.26C135.04 213.26 123.09 201.32 123.09 186.58C123.09 171.84 135.04 159.9 149.78 159.9C164.52 159.9 176.46 171.84 176.46 186.58Z" fill="#6351A1"/>
<path d="M172.73 185.13C172.73 199.87 160.79 211.81 146.05 211.81C131.32 211.81 119.38 199.87 119.38 185.13C119.38 170.4 131.32 158.45 146.05 158.45C160.79 158.45 172.73 170.4 172.73 185.13Z" fill="#6251A1"/>
<path d="M169 183.68C169 198.41 157.06 210.35 142.33 210.35C127.6 210.35 115.66 198.41 115.66 183.68C115.66 168.95 127.6 157.01 142.33 157.01C157.06 157.01 169 168.95 169 183.68Z" fill="#6251A1"/>
<path d="M170.91 27.43C170.91 42.58 158.63 54.86 143.48 54.86C128.33 54.86 116.05 42.58 116.05 27.43C116.06 12.28 128.33 0 143.48 0C158.63 0 170.91 12.28 170.91 27.43Z" fill="#EFA386"/>
<path d="M169.27 30.27C169.27 45.41 156.99 57.69 141.85 57.69C126.7 57.69 114.43 45.41 114.43 30.27C114.43 15.13 126.7 2.84998 141.85 2.84998C156.99 2.84998 169.27 15.13 169.27 30.27Z" fill="#EFA186"/>
<path d="M167.62 33.11C167.62 48.25 155.34 60.53 140.2 60.53C125.07 60.53 112.79 48.25 112.79 33.11C112.79 17.97 125.07 5.69 140.2 5.69C155.34 5.69 167.62 17.97 167.62 33.11Z" fill="#EFA087"/>
<path d="M165.98 35.95C165.98 51.09 153.71 63.36 138.57 63.36C123.44 63.36 111.16 51.09 111.16 35.95C111.16 20.81 123.44 8.53998 138.57 8.53998C153.71 8.53998 165.98 20.81 165.98 35.95Z" fill="#EF9F87"/>
<path d="M164.33 38.79C164.33 53.92 152.06 66.2 136.93 66.2C121.8 66.2 109.53 53.93 109.53 38.79C109.53 23.66 121.8 11.39 136.93 11.39C152.06 11.39 164.33 23.66 164.33 38.79Z" fill="#EE9E88"/>
<path d="M162.69 41.63C162.69 56.76 150.42 69.03 135.29 69.03C120.16 69.03 107.89 56.77 107.89 41.63C107.89 26.5 120.16 14.23 135.29 14.23C150.42 14.23 162.69 26.5 162.69 41.63Z" fill="#EE9D88"/>
<path d="M161.04 44.47C161.04 59.6 148.78 71.87 133.64 71.87C118.51 71.87 106.24 59.6 106.24 44.47C106.24 29.34 118.51 17.07 133.64 17.07C148.78 17.07 161.04 29.34 161.04 44.47Z" fill="#EE9C89"/>
<path d="M159.4 47.31C159.4 62.44 147.14 74.7 132.01 74.7C116.88 74.7 104.62 62.44 104.62 47.31C104.62 32.18 116.88 19.92 132.01 19.92C147.13 19.92 159.4 32.19 159.4 47.31Z" fill="#EE9B89"/>
<path d="M157.75 50.15C157.75 65.28 145.49 77.53 130.37 77.53C115.24 77.53 102.98 65.28 102.98 50.15C102.98 35.02 115.24 22.77 130.37 22.77C145.49 22.77 157.75 35.03 157.75 50.15Z" fill="#EE9A8A"/>
<path d="M156.1 52.99C156.1 68.11 143.85 80.37 128.72 80.37C113.6 80.37 101.34 68.11 101.34 52.99C101.34 37.87 113.6 25.61 128.72 25.61C143.85 25.61 156.1 37.87 156.1 52.99Z" fill="#EF998A"/>
<path d="M154.46 55.83C154.46 70.95 142.21 83.2 127.09 83.2C111.97 83.2 99.71 70.95 99.71 55.83C99.71 40.71 111.96 28.46 127.08 28.46C142.2 28.46 154.46 40.71 154.46 55.83Z" fill="#EF988A"/>
<path d="M152.81 58.67C152.81 73.79 140.56 86.04 125.44 86.04C110.32 86.04 98.07 73.79 98.07 58.67C98.07 43.55 110.32 31.3 125.44 31.3C140.56 31.31 152.81 43.56 152.81 58.67Z" fill="#ED978B"/>
<path d="M151.17 61.51C151.17 76.62 138.92 88.88 123.8 88.88C108.69 88.88 96.43 76.63 96.43 61.51C96.43 46.4 108.68 34.14 123.8 34.14C138.91 34.15 151.17 46.4 151.17 61.51Z" fill="#ED968B"/>
<path d="M149.52 64.35C149.52 79.46 137.27 91.71 122.16 91.71C107.05 91.71 94.81 79.47 94.81 64.35C94.81 49.24 107.06 36.99 122.17 36.99C137.28 36.99 149.52 49.24 149.52 64.35Z" fill="#EC958C"/>
<path d="M147.88 67.19C147.88 82.29 135.63 94.54 120.53 94.54C105.42 94.54 93.17 82.29 93.17 67.19C93.17 52.09 105.42 39.84 120.53 39.84C135.63 39.84 147.88 52.09 147.88 67.19Z" fill="#EC948C"/>
<path d="M146.23 70.04C146.23 85.14 133.98 97.39 118.88 97.39C103.78 97.39 91.54 85.14 91.54 70.04C91.54 54.94 103.78 42.69 118.88 42.69C133.99 42.69 146.23 54.93 146.23 70.04Z" fill="#EC938D"/>
<path d="M144.59 72.88C144.59 87.98 132.35 100.22 117.25 100.22C102.15 100.22 89.91 87.98 89.91 72.88C89.91 57.78 102.15 45.54 117.25 45.54C132.35 45.53 144.59 57.77 144.59 72.88Z" fill="#ED938D"/>
<path d="M142.94 75.72C142.94 90.82 130.7 103.05 115.61 103.05C100.51 103.05 88.27 90.81 88.27 75.72C88.27 60.62 100.51 48.39 115.61 48.39C130.7 48.38 142.94 60.62 142.94 75.72Z" fill="#ED918E"/>
<path d="M141.3 78.56C141.3 93.66 129.06 105.89 113.97 105.89C98.87 105.89 86.64 93.65 86.64 78.56C86.64 63.46 98.87 51.23 113.97 51.23C129.06 51.22 141.3 63.46 141.3 78.56Z" fill="#EE908E"/>
<path d="M139.65 81.4C139.65 96.5 127.42 108.73 112.32 108.73C97.22 108.73 85 96.49 85 81.4C85 66.3 97.23 54.07 112.33 54.07C127.43 54.07 139.65 66.3 139.65 81.4Z" fill="#EE908F"/>
<path d="M138.01 84.24C138.01 99.33 125.78 111.56 110.69 111.56C95.6 111.56 83.36 99.33 83.36 84.24C83.36 69.15 95.6 56.92 110.69 56.92C125.78 56.92 138.01 69.15 138.01 84.24Z" fill="#ED8F90"/>
<path d="M136.36 87.08C136.36 102.17 124.13 114.4 109.04 114.4C93.96 114.4 81.73 102.17 81.73 87.08C81.73 71.99 93.96 59.76 109.04 59.76C124.13 59.76 136.36 71.99 136.36 87.08Z" fill="#ED8D90"/>
<path d="M134.72 89.92C134.72 105 122.49 117.23 107.41 117.23C92.33 117.23 80.1 105 80.1 89.92C80.1 74.84 92.33 62.61 107.41 62.61C122.49 62.61 134.72 74.84 134.72 89.92Z" fill="#ED8D91"/>
<path d="M133.07 92.76C133.07 107.84 120.85 120.06 105.77 120.06C90.69 120.06 78.46 107.84 78.46 92.76C78.46 77.68 90.69 65.46 105.77 65.46C120.85 65.46 133.07 77.68 133.07 92.76Z" fill="#ED8B91"/>
<path d="M131.43 95.6C131.43 110.68 119.21 122.9 104.13 122.9C89.06 122.9 76.83 110.68 76.83 95.6C76.83 80.52 89.05 68.3 104.13 68.3C119.2 68.3 131.43 80.52 131.43 95.6Z" fill="#ED8A92"/>
<path d="M129.78 98.44C129.78 113.51 117.56 125.74 102.48 125.74C87.41 125.74 75.18 113.52 75.18 98.44C75.18 83.37 87.4 71.15 102.48 71.15C117.56 71.15 129.78 83.37 129.78 98.44Z" fill="#EC8991"/>
<path d="M128.14 101.28C128.14 116.35 115.92 128.57 100.85 128.57C85.78 128.57 73.56 116.35 73.56 101.28C73.56 86.21 85.78 73.99 100.85 73.99C115.92 73.99 128.14 86.21 128.14 101.28Z" fill="#EC8892"/>
<path d="M126.49 104.12C126.49 119.19 114.27 131.41 99.2 131.41C84.14 131.41 71.92 119.19 71.92 104.12C71.92 89.05 84.14 76.83 99.2 76.83C114.27 76.83 126.49 89.05 126.49 104.12Z" fill="#EB8692"/>
<path d="M124.84 106.96C124.84 122.02 112.62 134.24 97.56 134.24C82.5 134.24 70.28 122.02 70.28 106.96C70.28 91.9 82.5 79.68 97.56 79.68C112.63 79.68 124.84 91.9 124.84 106.96Z" fill="#EA8593"/>
<path d="M123.2 109.8C123.2 124.86 110.99 137.07 95.93 137.07C80.87 137.07 68.66 124.86 68.66 109.8C68.66 94.74 80.87 82.53 95.93 82.53C110.99 82.53 123.2 94.74 123.2 109.8Z" fill="#EA8593"/>
<path d="M121.55 112.64C121.55 127.7 109.34 139.91 94.29 139.91C79.23 139.91 67.02 127.69 67.02 112.64C67.02 97.58 79.23 85.37 94.29 85.37C109.35 85.37 121.55 97.59 121.55 112.64Z" fill="#EA8393"/>
<path d="M119.91 115.48C119.91 130.54 107.7 142.74 92.65 142.74C77.59 142.74 65.39 130.53 65.39 115.48C65.39 100.42 77.6 88.22 92.65 88.22C107.7 88.22 119.91 100.43 119.91 115.48Z" fill="#EA8394"/>
<path d="M118.26 118.32C118.26 133.38 106.06 145.58 91 145.58C75.94 145.58 63.74 133.38 63.74 118.32C63.74 103.26 75.94 91.06 91 91.06C106.06 91.06 118.26 103.27 118.26 118.32Z" fill="#EA8294"/>
<path d="M116.62 121.16C116.62 136.21 104.42 148.41 89.37 148.41C74.31 148.41 62.11 136.21 62.11 121.16C62.11 106.11 74.31 93.91 89.37 93.91C104.42 93.92 116.62 106.12 116.62 121.16Z" fill="#EA8095"/>
<path d="M114.97 124C114.97 139.05 102.77 151.25 87.72 151.25C72.67 151.25 60.48 139.05 60.48 124C60.48 108.95 72.68 96.75 87.73 96.75C102.78 96.75 114.97 108.96 114.97 124Z" fill="#EA8095"/>
<path d="M113.33 126.84C113.33 141.88 101.13 154.08 86.09 154.08C71.04 154.08 58.85 141.88 58.85 126.84C58.85 111.79 71.04 99.6 86.09 99.6C101.13 99.6 113.33 111.8 113.33 126.84Z" fill="#EA7F96"/>
<path d="M111.68 129.69C111.68 144.73 99.49 156.92 84.45 156.92C69.4 156.92 57.21 144.73 57.21 129.69C57.21 114.65 69.4 102.46 84.45 102.46C99.49 102.45 111.68 114.64 111.68 129.69Z" fill="#E97F96"/>
<path d="M110.04 132.53C110.04 147.57 97.85 159.76 82.81 159.76C67.77 159.76 55.58 147.57 55.58 132.53C55.58 117.49 67.76 105.3 82.81 105.3C97.86 105.3 110.04 117.49 110.04 132.53Z" fill="#E97E97"/>
<path d="M108.39 135.37C108.39 150.4 96.2 162.6 81.16 162.6C66.13 162.6 53.93 150.41 53.93 135.37C53.93 120.34 66.12 108.15 81.16 108.15C96.2 108.14 108.39 120.33 108.39 135.37Z" fill="#E97C96"/>
<path d="M106.75 138.21C106.75 153.24 94.57 165.43 79.53 165.43C64.5 165.43 52.3 153.25 52.3 138.21C52.3 123.18 64.49 110.99 79.53 110.99C94.56 110.99 106.75 123.17 106.75 138.21Z" fill="#E97C98"/>
<path d="M105.1 141.05C105.1 156.08 92.92 168.27 77.88 168.27C62.85 168.27 50.67 156.09 50.67 141.05C50.67 126.02 62.85 113.83 77.88 113.83C92.92 113.83 105.1 126.02 105.1 141.05Z" fill="#E97A97"/>
<path d="M103.46 143.89C103.46 158.92 91.28 171.1 76.25 171.1C61.22 171.1 49.04 158.92 49.04 143.89C49.04 128.86 61.22 116.68 76.25 116.68C91.27 116.68 103.46 128.86 103.46 143.89Z" fill="#E97997"/>
<path d="M101.81 146.73C101.81 161.76 89.63 173.93 74.61 173.93C59.58 173.93 47.4 161.75 47.4 146.73C47.4 131.7 59.58 119.53 74.61 119.53C89.63 119.53 101.81 131.7 101.81 146.73Z" fill="#EA7999"/>
<path d="M100.17 149.57C100.17 164.59 87.99 176.77 72.97 176.77C57.95 176.77 45.78 164.59 45.78 149.57C45.78 134.54 57.96 122.37 72.97 122.37C87.99 122.37 100.17 134.54 100.17 149.57Z" fill="#E87798"/>
<path d="M98.52 152.41C98.52 167.43 86.34 179.6 71.33 179.6C56.31 179.6 44.14 167.42 44.14 152.41C44.14 137.39 56.32 125.22 71.33 125.22C86.34 125.22 98.52 137.39 98.52 152.41Z" fill="#E9769A"/>
<path d="M96.88 155.25C96.88 170.27 84.7 182.44 69.69 182.44C54.67 182.44 42.5 170.27 42.5 155.25C42.5 140.23 54.68 128.06 69.69 128.06C84.7 128.06 96.88 140.23 96.88 155.25Z" fill="#E8769A"/>
<path d="M95.23 158.09C95.23 173.1 83.06 185.28 68.04 185.28C53.03 185.28 40.86 173.1 40.86 158.09C40.86 143.08 53.03 130.9 68.04 130.9C83.06 130.9 95.23 143.08 95.23 158.09Z" fill="#E8749B"/>
<path d="M93.58 160.93C93.58 175.94 81.41 188.11 66.4 188.11C51.39 188.11 39.22 175.94 39.22 160.93C39.22 145.92 51.39 133.75 66.4 133.75C81.42 133.75 93.58 145.92 93.58 160.93Z" fill="#E8739B"/>
<path d="M91.94 163.77C91.94 178.78 79.77 190.94 64.77 190.94C49.76 190.94 37.59 178.78 37.59 163.77C37.59 148.76 49.76 136.6 64.77 136.6C79.77 136.6 91.94 148.76 91.94 163.77Z" fill="#E9729C"/>
<path d="M90.29 166.61C90.29 181.61 78.13 193.78 63.12 193.78C48.12 193.78 35.96 181.61 35.96 166.61C35.96 151.61 48.12 139.44 63.12 139.44C78.13 139.44 90.29 151.61 90.29 166.61Z" fill="#E9719B"/>
<path d="M88.65 169.45C88.65 184.45 76.49 196.61 61.49 196.61C46.49 196.61 34.33 184.45 34.33 169.45C34.33 154.45 46.49 142.29 61.49 142.29C76.49 142.29 88.65 154.45 88.65 169.45Z" fill="#E9709B"/>
<path d="M87 172.29C87 187.29 74.84 199.44 59.85 199.44C44.85 199.44 32.7 187.29 32.7 172.29C32.7 157.29 44.85 145.14 59.85 145.14C74.84 145.14 87 157.29 87 172.29Z" fill="#E76F9D"/>
<path d="M85.36 175.13C85.36 190.12 73.21 202.28 58.21 202.28C43.22 202.28 31.06 190.12 31.06 175.13C31.06 160.14 43.21 147.98 58.21 147.98C73.21 147.98 85.36 160.14 85.36 175.13Z" fill="#E76E9D"/>
<path d="M83.71 177.97C83.71 192.96 71.56 205.12 56.56 205.12C41.56 205.12 29.41 192.97 29.41 177.97C29.41 162.98 41.56 150.82 56.56 150.82C71.56 150.82 83.71 162.98 83.71 177.97Z" fill="#E76E9E"/>
<path d="M82.07 180.81C82.07 195.8 69.92 207.95 54.93 207.95C39.94 207.95 27.79 195.8 27.79 180.81C27.79 165.82 39.94 153.67 54.93 153.67C69.92 153.68 82.07 165.83 82.07 180.81Z" fill="#E76E9E"/>
<path d="M80.42 183.65C80.42 198.64 68.27 210.79 53.28 210.79C38.29 210.79 26.15 198.64 26.15 183.65C26.15 168.66 38.3 156.51 53.28 156.51C68.28 156.52 80.42 168.67 80.42 183.65Z" fill="#E76D9F"/>
<path d="M78.78 186.5C78.78 201.49 66.63 213.63 51.65 213.63C36.67 213.63 24.52 201.49 24.52 186.5C24.52 171.51 36.67 159.37 51.65 159.37C66.63 159.36 78.78 171.51 78.78 186.5Z" fill="#E66C9F"/>
<path d="M77.13 189.34C77.13 204.32 64.98 216.46 50.01 216.46C35.04 216.46 22.89 204.31 22.89 189.34C22.89 174.36 35.04 162.22 50.01 162.22C64.98 162.22 77.13 174.36 77.13 189.34Z" fill="#E76BA0"/>
<path d="M75.49 192.18C75.49 207.16 63.34 219.3 48.37 219.3C33.39 219.3 21.25 207.16 21.25 192.18C21.25 177.2 33.4 165.06 48.37 165.06C63.34 165.06 75.49 177.2 75.49 192.18Z" fill="#E76AA0"/>
<path d="M73.84 195.02C73.84 210 61.7 222.14 46.72 222.14C31.75 222.14 19.6 210 19.6 195.02C19.6 180.04 31.75 167.9 46.72 167.9C61.7 167.9 73.84 180.04 73.84 195.02Z" fill="#E76AA1"/>
<path d="M72.2 197.86C72.2 212.83 60.06 224.97 45.09 224.97C30.12 224.97 17.98 212.83 17.98 197.86C17.98 182.89 30.12 170.75 45.09 170.75C60.06 170.75 72.2 182.89 72.2 197.86Z" fill="#E768A1"/>
<path d="M70.55 200.7C70.55 215.67 58.41 227.8 43.45 227.8C28.48 227.8 16.34 215.67 16.34 200.7C16.34 185.73 28.48 173.6 43.45 173.6C58.41 173.6 70.55 185.73 70.55 200.7Z" fill="#E767A1"/>
<path d="M68.91 203.54C68.91 218.5 56.78 230.64 41.81 230.64C26.85 230.64 14.72 218.5 14.72 203.54C14.72 188.58 26.85 176.44 41.81 176.44C56.78 176.44 68.91 188.58 68.91 203.54Z" fill="#E666A2"/>
<path d="M67.26 206.38C67.26 221.34 55.13 233.47 40.17 233.47C25.21 233.47 13.08 221.34 13.08 206.38C13.08 191.42 25.21 179.29 40.17 179.29C55.13 179.29 67.26 191.42 67.26 206.38Z" fill="#E664A1"/>
<path d="M65.62 209.22C65.62 224.18 53.49 236.3 38.54 236.3C23.58 236.3 11.45 224.18 11.45 209.22C11.45 194.26 23.58 182.14 38.54 182.14C53.49 182.13 65.62 194.26 65.62 209.22Z" fill="#E563A2"/>
<path d="M63.97 212.06C63.97 227.02 51.85 239.14 36.89 239.14C21.93 239.14 9.81 227.01 9.81 212.06C9.81 197.11 21.93 184.98 36.89 184.98C51.85 184.98 63.97 197.1 63.97 212.06Z" fill="#E563A3"/>
<path d="M62.33 214.9C62.33 229.86 50.21 241.98 35.25 241.98C20.29 241.98 8.16998 229.86 8.16998 214.9C8.16998 199.95 20.29 187.82 35.25 187.82C50.21 187.82 62.33 199.95 62.33 214.9Z" fill="#E562A3"/>
<path d="M60.68 217.74C60.68 232.7 48.56 244.81 33.61 244.81C18.65 244.81 6.53003 232.7 6.53003 217.74C6.53003 202.79 18.65 190.67 33.61 190.67C48.56 190.67 60.68 202.79 60.68 217.74Z" fill="#E462A3"/>
<path d="M59.03 220.58C59.03 235.53 46.91 247.65 31.96 247.65C17.01 247.65 4.90002 235.53 4.90002 220.58C4.90002 205.63 17.01 193.51 31.96 193.51C46.91 193.51 59.03 205.63 59.03 220.58Z" fill="#E461A3"/>
<path d="M57.39 223.42C57.39 238.37 45.28 250.48 30.33 250.48C15.38 250.48 3.27002 238.37 3.27002 223.42C3.27002 208.47 15.38 196.36 30.33 196.36C45.28 196.36 57.39 208.47 57.39 223.42Z" fill="#E460A2"/>
<path d="M55.74 226.26C55.74 241.2 43.63 253.31 28.69 253.31C13.74 253.31 1.63 241.2 1.63 226.26C1.63 211.32 13.74 199.21 28.69 199.21C43.63 199.21 55.74 211.32 55.74 226.26Z" fill="#E35FA2"/>
<path d="M54.1 229.1C54.1 244.04 41.99 256.15 27.05 256.15C12.11 256.15 0 244.04 0 229.1C0 214.16 12.11 202.05 27.05 202.05C41.99 202.05 54.1 214.16 54.1 229.1Z" fill="#E25EA2"/>
<path d="M56.56 228.4C56.56 243.34 44.45 255.45 29.51 255.45C14.57 255.45 2.46997 243.34 2.46997 228.4C2.46997 213.46 14.58 201.35 29.52 201.35C44.46 201.35 56.56 213.46 56.56 228.4Z" fill="#E25DA1"/>
<path d="M59.6 227.19C59.6 242.12 47.49 254.23 32.56 254.23C17.62 254.23 5.51001 242.12 5.51001 227.19C5.51001 212.26 17.62 200.15 32.56 200.15C47.5 200.15 59.6 212.26 59.6 227.19Z" fill="#E25DA1"/>
<path d="M62.65 225.98C62.65 240.91 50.54 253.02 35.61 253.02C20.69 253.02 8.58002 240.91 8.58002 225.98C8.58002 211.05 20.69 198.94 35.61 198.94C50.54 198.94 62.65 211.05 62.65 225.98Z" fill="#E15CA1"/>
<path d="M65.69 224.77C65.69 239.69 53.59 251.8 38.66 251.8C23.74 251.8 11.63 239.69 11.63 224.77C11.63 209.84 23.74 197.74 38.66 197.74C53.59 197.74 65.69 209.84 65.69 224.77Z" fill="#E05BA0"/>
<path d="M68.74 223.56C68.74 238.48 56.64 250.58 41.72 250.58C26.8 250.58 14.7 238.48 14.7 223.56C14.7 208.64 26.8 196.54 41.72 196.54C56.64 196.54 68.74 208.64 68.74 223.56Z" fill="#E05AA0"/>
<path d="M71.78 222.35C71.78 237.27 59.68 249.37 44.76 249.37C29.84 249.37 17.75 237.27 17.75 222.35C17.75 207.43 29.85 195.33 44.76 195.33C59.68 195.33 71.78 207.43 71.78 222.35Z" fill="#DF599F"/>
<path d="M74.82 221.15C74.82 236.07 62.73 248.16 47.81 248.16C32.89 248.16 20.8 236.06 20.8 221.15C20.8 206.23 32.9 194.14 47.81 194.14C62.73 194.13 74.82 206.23 74.82 221.15Z" fill="#DF589F"/>
<path d="M77.87 219.94C77.87 234.86 65.78 246.95 50.86 246.95C35.94 246.95 23.85 234.86 23.85 219.94C23.85 205.02 35.94 192.93 50.86 192.93C65.78 192.93 77.87 205.02 77.87 219.94Z" fill="#DD589F"/>
<path d="M80.91 218.73C80.91 233.65 68.82 245.73 53.91 245.73C38.99 245.73 26.9 233.65 26.9 218.73C26.9 203.81 38.99 191.72 53.91 191.72C68.82 191.72 80.91 203.81 80.91 218.73Z" fill="#DD589F"/>
<path d="M83.95 217.52C83.95 232.43 71.86 244.52 56.95 244.52C42.04 244.52 29.95 232.43 29.95 217.52C29.95 202.61 42.04 190.52 56.95 190.52C71.86 190.52 83.95 202.61 83.95 217.52Z" fill="#DC579F"/>
<path d="M87 216.31C87 231.22 74.92 243.3 60.01 243.3C45.1 243.3 33.02 231.22 33.02 216.31C33.02 201.4 45.1 189.32 60.01 189.32C74.92 189.32 87 201.4 87 216.31Z" fill="#DA579E"/>
<path d="M90.04 215.1C90.04 230 77.96 242.08 63.06 242.08C48.15 242.08 36.07 230 36.07 215.1C36.07 200.2 48.15 188.12 63.06 188.12C77.96 188.12 90.04 200.2 90.04 215.1Z" fill="#DA569E"/>
<path d="M93.09 213.89C93.09 228.79 81.01 240.87 66.11 240.87C51.21 240.87 39.13 228.79 39.13 213.89C39.13 198.99 51.21 186.91 66.11 186.91C81 186.91 93.09 198.99 93.09 213.89Z" fill="#D9559E"/>
<path d="M96.13 212.69C96.13 227.59 84.06 239.67 69.15 239.67C54.25 239.67 42.17 227.6 42.17 212.69C42.17 197.79 54.24 185.71 69.15 185.71C84.06 185.71 96.13 197.79 96.13 212.69Z" fill="#D9549E"/>
<path d="M99.17 211.48C99.17 226.37 87.1 238.45 72.2 238.45C57.3 238.45 45.22 226.38 45.22 211.48C45.22 196.59 57.29 184.51 72.2 184.51C87.1 184.51 99.17 196.59 99.17 211.48Z" fill="#D8549E"/>
<path d="M102.22 210.27C102.22 225.16 90.15 237.24 75.25 237.24C60.36 237.24 48.29 225.17 48.29 210.27C48.29 195.38 60.36 183.3 75.25 183.3C90.14 183.3 102.22 195.38 102.22 210.27Z" fill="#D8539D"/>
<path d="M105.26 209.06C105.26 223.95 93.19 236.02 78.3 236.02C63.41 236.02 51.34 223.95 51.34 209.06C51.34 194.17 63.41 182.1 78.3 182.1C93.19 182.1 105.26 194.17 105.26 209.06Z" fill="#D7539D"/>
<path d="M108.31 207.85C108.31 222.74 96.24 234.8 81.36 234.8C66.47 234.8 54.4 222.73 54.4 207.85C54.4 192.97 66.47 180.9 81.36 180.9C96.24 180.9 108.31 192.97 108.31 207.85Z" fill="#D6529D"/>
<path d="M111.35 206.64C111.35 221.53 99.28 233.59 84.4 233.59C69.52 233.59 57.46 221.52 57.46 206.64C57.46 191.76 69.52 179.69 84.4 179.69C99.28 179.69 111.35 191.76 111.35 206.64Z" fill="#D5529D"/>
<path d="M114.39 205.44C114.39 220.32 102.32 232.38 87.45 232.38C72.57 232.38 60.51 220.31 60.51 205.44C60.51 190.56 72.57 178.5 87.45 178.5C102.33 178.49 114.39 190.56 114.39 205.44Z" fill="#D4529D"/>
<path d="M117.44 204.23C117.44 219.11 105.38 231.17 90.5 231.17C75.62 231.17 63.56 219.11 63.56 204.23C63.56 189.35 75.63 177.29 90.5 177.29C105.38 177.29 117.44 189.35 117.44 204.23Z" fill="#D3519C"/>
<path d="M120.48 203.02C120.48 217.9 108.42 229.96 93.54 229.96C78.67 229.96 66.61 217.9 66.61 203.02C66.61 188.14 78.67 176.08 93.54 176.08C108.42 176.08 120.48 188.14 120.48 203.02Z" fill="#D2519C"/>
<path d="M123.52 201.81C123.52 216.68 111.46 228.74 96.59 228.74C81.72 228.74 69.66 216.68 69.66 201.81C69.66 186.94 81.72 174.88 96.59 174.88C111.46 174.88 123.52 186.94 123.52 201.81Z" fill="#D2509C"/>
<path d="M126.57 200.6C126.57 215.47 114.52 227.52 99.65 227.52C84.78 227.52 72.72 215.47 72.72 200.6C72.72 185.73 84.78 173.68 99.65 173.68C114.52 173.68 126.57 185.73 126.57 200.6Z" fill="#D2509C"/>
<path d="M129.61 199.39C129.61 214.26 117.56 226.31 102.69 226.31C87.83 226.31 75.78 214.26 75.78 199.39C75.78 184.52 87.83 172.47 102.69 172.47C117.56 172.47 129.61 184.52 129.61 199.39Z" fill="#D2509C"/>
<path d="M132.66 198.18C132.66 213.04 120.61 225.09 105.75 225.09C90.89 225.09 78.84 213.04 78.84 198.18C78.84 183.32 90.89 171.27 105.75 171.27C120.6 171.27 132.66 183.32 132.66 198.18Z" fill="#D14F9C"/>
<path d="M135.7 196.97C135.7 211.83 123.66 223.88 108.79 223.88C93.93 223.88 81.88 211.84 81.88 196.97C81.88 182.11 93.92 170.07 108.79 170.07C123.66 170.07 135.7 182.11 135.7 196.97Z" fill="#CF4F9C"/>
<path d="M138.74 195.77C138.74 210.62 126.7 222.68 111.83 222.68C96.98 222.68 84.93 210.63 84.93 195.77C84.93 180.91 96.97 168.87 111.83 168.87C126.7 168.86 138.74 180.91 138.74 195.77Z" fill="#CF4F9C"/>
<path d="M141.79 194.56C141.79 209.41 129.75 221.46 114.89 221.46C100.03 221.46 87.99 209.42 87.99 194.56C87.99 179.71 100.03 167.66 114.89 167.66C129.75 167.66 141.79 179.71 141.79 194.56Z" fill="#CF4E9B"/>
<path d="M144.83 193.35C144.83 208.2 132.79 220.24 117.94 220.24C103.09 220.24 91.05 208.2 91.05 193.35C91.05 178.5 103.09 166.46 117.94 166.46C132.79 166.46 144.83 178.5 144.83 193.35Z" fill="#CE4E9B"/>
<path d="M147.88 192.14C147.88 206.99 135.84 219.03 120.99 219.03C106.14 219.03 94.11 206.99 94.11 192.14C94.11 177.29 106.15 165.25 120.99 165.25C135.84 165.25 147.88 177.3 147.88 192.14Z" fill="#CD4E9B"/>
<path d="M150.92 190.93C150.92 205.78 138.88 217.81 124.04 217.81C109.19 217.81 97.16 205.77 97.16 190.93C97.16 176.08 109.2 164.05 124.04 164.05C138.88 164.05 150.92 176.09 150.92 190.93Z" fill="#CD4E9B"/>
<path d="M153.96 189.72C153.96 204.57 141.92 216.59 127.09 216.59C112.24 216.59 100.22 204.56 100.22 189.72C100.22 174.87 112.25 162.85 127.09 162.85C141.93 162.85 153.96 174.88 153.96 189.72Z" fill="#CC4E9B"/>
<path d="M157.01 188.52C157.01 203.36 144.98 215.39 130.14 215.39C115.29 215.39 103.27 203.35 103.27 188.52C103.27 173.68 115.3 161.65 130.14 161.65C144.98 161.64 157.01 173.68 157.01 188.52Z" fill="#CC4D9B"/>
<path d="M160.05 187.31C160.05 202.15 148.02 214.18 133.18 214.18C118.34 214.18 106.31 202.15 106.31 187.31C106.31 172.47 118.34 160.44 133.18 160.44C148.02 160.44 160.05 172.47 160.05 187.31Z" fill="#CA4D9B"/>
<path d="M163.09 186.1C163.09 200.94 151.06 212.96 136.23 212.96C121.39 212.96 109.37 200.94 109.37 186.1C109.37 171.27 121.39 159.24 136.23 159.24C151.07 159.24 163.09 171.27 163.09 186.1Z" fill="#CA4D9B"/>
<path d="M166.14 184.89C166.14 199.72 154.12 211.74 139.29 211.74C124.45 211.74 112.43 199.72 112.43 184.89C112.43 170.06 124.45 158.04 139.29 158.04C154.12 158.04 166.14 170.06 166.14 184.89Z" fill="#C94C9A"/>
<path d="M169.18 183.68C169.18 198.51 157.16 210.53 142.33 210.53C127.5 210.53 115.48 198.51 115.48 183.68C115.48 168.85 127.5 156.83 142.33 156.83C157.16 156.83 169.18 168.85 169.18 183.68Z" fill="#C94C9A"/>
</g>
<defs>
<clipPath id="clip0_1_5">
<rect width="286.24" height="256.16" fill="white"/>
</clipPath>
</defs>
</svg>
