<svg width="43" height="47" viewBox="0 0 43 47" fill="none" xmlns="http://www.w3.org/2000/svg">
<g clip-path="url(#clip0_1_765)">
<path d="M34.75 14.63C38.3399 14.63 41.25 11.7199 41.25 8.13C41.25 4.54015 38.3399 1.63 34.75 1.63C31.1602 1.63 28.25 4.54015 28.25 8.13C28.25 11.7199 31.1602 14.63 34.75 14.63Z" stroke="white" stroke-width="3.25" stroke-linecap="round" stroke-linejoin="round"/>
<path d="M8.75 29.79C12.3399 29.79 15.25 26.8799 15.25 23.29C15.25 19.7002 12.3399 16.79 8.75 16.79C5.16015 16.79 2.25 19.7002 2.25 23.29C2.25 26.8799 5.16015 29.79 8.75 29.79Z" stroke="white" stroke-width="3.25" stroke-linecap="round" stroke-linejoin="round"/>
<path d="M34.75 44.96C38.3399 44.96 41.25 42.0498 41.25 38.46C41.25 34.8701 38.3399 31.96 34.75 31.96C31.1602 31.96 28.25 34.8701 28.25 38.46C28.25 42.0498 31.1602 44.96 34.75 44.96Z" stroke="white" stroke-width="3.25" stroke-linecap="round" stroke-linejoin="round"/>
<path d="M14.36 26.5601L29.16 35.1901" stroke="white" stroke-width="3.25" stroke-linecap="round" stroke-linejoin="round"/>
<path d="M29.13 11.4L14.36 20.02" stroke="white" stroke-width="3.25" stroke-linecap="round" stroke-linejoin="round"/>
</g>
<defs>
<clipPath id="clip0_1_765">
<rect width="42.25" height="46.58" fill="white" transform="translate(0.619995)"/>
</clipPath>
</defs>
</svg>
