<svg width="43" height="42" viewBox="0 0 43 42" fill="none" xmlns="http://www.w3.org/2000/svg">
<g clip-path="url(#clip0_1_743)">
<path d="M42.37 18.83C42.37 8.45 32.96 0 21.39 0C9.82004 0 0.420044 9.41 0.420044 20.97C0.420044 32.53 9.83004 41.94 21.39 41.94C24.08 41.94 26.26 39.75 26.26 37.07C26.26 35.89 25.82 34.74 25.01 33.81C24.74 33.47 24.61 33.13 24.61 32.78C24.61 31.9 25.3 31.21 26.18 31.21H29.98C36.81 31.21 42.37 25.65 42.37 18.82V18.83ZM21.31 32.78C21.31 33.96 21.75 35.11 22.54 35.99C22.82 36.32 22.97 36.69 22.97 37.07C22.97 37.95 22.28 38.64 21.4 38.64C11.66 38.64 3.73004 30.71 3.73004 20.97C3.73004 11.23 11.65 3.3 21.39 3.3C31.13 3.3 39.06 10.26 39.06 18.83C39.06 23.84 34.98 27.91 29.98 27.91H26.18C23.49 27.91 21.31 30.1 21.31 32.78Z" fill="#C94C9A"/>
<path d="M9.59006 17.1801C8.09006 17.1801 6.87006 18.4001 6.87006 19.9001C6.87006 21.4001 8.09006 22.6301 9.59006 22.6301C11.0901 22.6301 12.3101 21.4101 12.3101 19.9001C12.3101 18.3901 11.0901 17.1801 9.59006 17.1801Z" fill="#C94C9A"/>
<path d="M16.03 8.58997C14.53 8.58997 13.3 9.80997 13.3 11.31C13.3 12.81 14.52 14.03 16.03 14.03C17.54 14.03 18.75 12.81 18.75 11.31C18.75 9.80997 17.53 8.58997 16.03 8.58997Z" fill="#C94C9A"/>
<path d="M26.76 8.58997C25.26 8.58997 24.03 9.80997 24.03 11.31C24.03 12.81 25.25 14.03 26.76 14.03C28.27 14.03 29.48 12.81 29.48 11.31C29.48 9.80997 28.26 8.58997 26.76 8.58997Z" fill="#C94C9A"/>
<path d="M33.2 17.1801C31.7 17.1801 30.48 18.4001 30.48 19.9001C30.48 21.4001 31.7 22.6301 33.2 22.6301C34.7 22.6301 35.92 21.4101 35.92 19.9001C35.92 18.3901 34.7 17.1801 33.2 17.1801Z" fill="#C94C9A"/>
</g>
<defs>
<clipPath id="clip0_1_743">
<rect width="41.95" height="41.95" fill="white" transform="translate(0.420044)"/>
</clipPath>
</defs>
</svg>
